<?xml version="1.0" encoding="utf-8"?>
<!-- Generator: Adobe Illustrator 21.0.2, SVG Export Plug-In . SVG Version: 6.00 Build 0)  -->
<svg version="1.1" id="Capa_1" xmlns="http://www.w3.org/2000/svg" xmlns:xlink="http://www.w3.org/1999/xlink" x="0px" y="0px"
	 viewBox="0 0 792 612" style="enable-background:new 0 0 792 612;" xml:space="preserve">
<style type="text/css">
	.st0{clip-path:url(#XMLID_2_);}
	.st1{fill:#07AAA9;}
	.st2{fill:#F6AC3E;}
	.st3{fill:#07AAA9;stroke:#07AAA9;stroke-width:1.2192;stroke-miterlimit:10;}
</style>
<g id="XMLID_2432_">
	<defs>
		<rect id="XMLID_2431_" x="90.4" y="16.8" width="606.5" height="558.5"/>
	</defs>
	<clipPath id="XMLID_2_">
		<use xlink:href="#XMLID_2431_"  style="overflow:visible;"/>
	</clipPath>
	<g id="XMLID_1055_" class="st0">
		<g id="XMLID_2749_">
			<path id="XMLID_2901_" class="st1" d="M325.5,421.1c-0.2-1.8-1.8-2.4-3.4-2.7l-7.6-54.8c3.8-4.2,3.2-9.8,4.3-14.8
				c4.6-19.7,13.7-37.6,22.7-55.5c15.8-6.7,20.1-26.9,33.9-37c4.4-3.3,8.3-7.1,12.1-11c16.3-16.4,35.9-26.4,59.4-28.9
				c8-0.9,15.9-2.1,23.9-3c3-0.3,4.8-1.9,6.2-4.3c5.2-8.6,19.6-13.8,29.3-10.8c7.6,2.3,14.9,4.7,23.2,4.9
				c10.4,0.3,21.7,10.6,24.6,20.7c3.6,12.5,3.3,12.9-9.8,11.6c-6.1,5.7-9.2-0.1-13.2,7.8c-0.8,1.5-2.7,3-3.7,3.3
				c-5.6,2-8.7,7.8-15.1,8.4c-3.5,0.3-6.9,1.6-9.4,4.4c-1.1,1.2-2.4,2.1-4.2,1.8c-1.3-0.2-1.6,1.7-3,1.4c-0.4-0.1,1.1,2,2.1,2.7
				c5.8,4,13.9-10.7,20.4-8.9c3.2,0.8,37.5-30.1,35-28.8c-29.2,16-30.7,44.9-29,49.2c4.4,10.6-0.6,39.3-2.6,43.4
				c-2.5,5.1-2,9.1-3.7,14.4c-4.6,14.2-10.3,25.5-16.2,39.2c-2.6,6-16.9,16.9-25.1,25.3c-7.1,7.3-11,17.2-10.4,27.4
				c0.1,2.4,1.4,8.8,2,10.8c1.4,4.7,2.7,10.6,5.6,15.6c4.2,7.4,6.8,15.7,7.9,24.2c0.6,5.1,1.1,10.1,1.2,13.1
				c0.2,8.8,0.1,17.6-0.4,26.4c-0.2,4.1-0.3,7.4-0.3,7.4s-4,34.2-8.4,34.2c-6.6,7.2-20.1,2.2-22.8,10.8c-5.8,18-14.8,34.3-30.2,46.5
				c-4,3.2-6,7.7-8.4,11.9c-0.7,1.3-1.9,2.7-0.3,4.3c1.3,1.3,2.9,1.2,4.5,0.7c6.5-2.1,13.2-2.5,20-2.4c7.3-4,13,0.8,19.5,3
				c22,7.2,42.2,18.1,63.1,27.6c12.2,5.5,23,13,33.3,21.2c13.4,10.6,27.7,19.8,41.9,29.2c0.8,0.5,1.4,1.7,3,0.6
				c-7.6-11.3-13.3-23.7-21-35.2c-5.7-8.6-12.5-16.8-16.7-26.2c-3.9-8.6-4.6-17.8-2.1-27c0.4-1.6,0.1-3.6,2.2-4.4
				c5.1,1.3,5.8,6.2,8.1,9.7c2,3,3.4,6.3,5.1,9.6c0.8-0.6,1.3-0.9,1.3-1c-4.3-8.8-4.2-19.5-11.7-27c6.4-14.3,11.3-29.2,14.2-44.5
				c2.6-13.3,19-29.3,21.5-42.6c1.4-7.5,0.5-22.4,0.7-23.3c0-0.1-0.3-0.9,0.4-0.4c3,2.3-2.7,6.9,0.9,5.8c2-0.7,13.5,62.3,14.1,17.6
				c0-1.1,2.6,5.2,3.3,6.6c1,2,8.9-4,9.4-1.9c5.5,22.2,0.5,16,11.3,36.1c2.6,4.9,6.3,9.2,9.8,13.5c2.2,2.7,5.6,5.8,2.5,10
				c-0.4,0.5-0.5,2.1-1.7,1.1c-0.7-0.6-0.6-3-2.3-1.2c-0.9,0.9-0.8,2.3,0,3.4c1.1,1.7,1.6,3.7,3.7,4.9c1.4,0.8,3,2.1,2.1,4.2
				l0.1-0.1c3.9,10.1,6.7,20.4,12.8,29.7c2.9,4.5,4.6,10.6,2.7,16.8c-0.8-3.7-1.4-7.5-2.4-11.2c-0.3-1-0.2-3.4-2.9-2.5
				c-2.3,0.7-1.2,2.2-1,3.2c0.8,4.3,0.2,9,3.4,12.8c1.2,1.4-2,3.1-0.8,5.1c0.4,0.6-0.2,2,1.1,1.9c0.4,0,0.8-1.4,1.3-2.4
				c2.4,4.2,0.9,7.9,0.5,11.5c-0.7,7.4,6.2,11.7,7.8,18.2c1.5,6.1,6,11,7.5,17.2c-5.4-2.4-5.5-8.7-9.6-13.6
				c-0.8,6.3,0.1,11.3,1.3,16c1.2,4.8,2.6,10.2,5.6,14c5.5,7,10.8,14.3,17.1,20.8c-0.9-9.3-3.8-17.9-8.9-25.6
				c-2.5-3.7-4.3-7.5-5.5-11.6c8.6,10.7,15.6,22.1,15.7,36.4c0,2.2,0.7,3.9,2.8,5.2c2.5,1.5,4.4,4.1,4,6.9c-0.9,7,1.2,13.4,3.1,19.8
				l-2.1,0.3c-0.6-2.9-1.5-5.6-3.5-8.4c-2.3,3.1-1.7,6.2-1.8,9.1l-15.9,2.1c-0.7-5-1.6-10-6.2-14.4c-1.2,6.2,2.8,10.1,4.1,14.7
				c-100.7,13.2-201.4,26.4-302,39.8c-3.6,0.5-4.4-0.1-4.9-3.7c-9-66.2-18.2-132.4-27.3-198.6c2.7-2.3,2.7-5.5,3.2-8.6
				c0.6-3.7-2.7-3.3-4.9-3.8l-9-65.2c1.3-0.5,2.5-1,3.8-1.5c-0.1,3.1,4.8,3.6,3.9,7.3c-0.7,2.5-0.4,5.3-1.3,7.7
				c-2.1,5.2-0.7,9.2,3.4,13.1c1.2-5,0.4-9.8,0.4-14.5c0-5.1-0.4-9.9,3-14.8c2.1-3,1.8-7.9,2.2-12c0.8-7.5,0.2-15.2,2.2-22.6
				c0.3-1.1,0-2.4-0.3-3.5c-1.3-5.4-2.6-10.7-0.3-16.2c1.5-3.8-1.6-7-2.3-10.7c-4.6,4.9-5.9,10.4-5.9,16.6
				c-0.1-8.4-2.5-16.7-1.1-25.1c0.9-5.5,2.2-11,2.6-16.4c0.6-8,1.2-16,2.9-23.8c2.1-9.6,4-19.2,4.6-29c0.1-1.9,0.8-4.4-1.4-5
				c-2-0.6-3.4,1.8-4.3,3.3c-1.8,3-3.4,6.7-2.6,9.8c1.5,6.3-2.3,11.3-3,17c-0.3,2.3-3.5,5.3,2,5.8c1,0.1,1,1.3,0.7,2.2
				c-1.1,3.4-2.3,6.8-3.8,11.2c-2.3-4.6,0.2-8.4-1.1-11.9c-0.5-1.2,0-3.1-1.8-3.4c-2-0.4-1.8,1.6-2.5,2.7
				c-5.1,8.1-3.4,17.5-5.1,26.3c-1.1,5.5-2.8,10.7-4.8,15.9l-3.4-24.8C327.3,430.5,326.1,425.8,325.5,421.1z M518.3,237.8
				c-0.1-0.1-0.3-0.2-0.4-0.3C518,237.6,518.2,237.7,518.3,237.8c0.5,0.7,0.8,0.5,1.1-0.2l0.1,0C519,237.7,518.7,237.8,518.3,237.8z
				 M630.4,582.6c-0.2,0-0.5,0.3-0.8,0.4c0.3,0.5,0.7,1,1,1.5c0.2,1.4,0.5,2.7,2.3,2.9c0.5-1.7-0.5-2.6-1.8-3.4
				C631.2,583.4,631.4,582.7,630.4,582.6z M380.8,545.6c0.1,1.9,0.1,3.9,0.2,5.8c-0.8,0.7-1.8,1.8-0.6,2.4c1.5,0.7,1.2-1,1.4-1.8
				C382.8,549.8,382.1,547.7,380.8,545.6z M387.2,610.8l0.2,0.3c0.1,0.5,0.1,1.1,0.4,1.5c0.5,0.7,0.8,0.2,0.9-0.3
				c0.4-1.5,0.7-2.9-0.1-4.4c-0.4,1.2-0.8,2.2-1.3,3.3L387.2,610.8z M635.1,564.7c-1.1,0.6-0.2,1.7,0.4,2.5c0.5,1.8,0.9,3.7,3.2,4.9
				c-0.2-2.4,0.4-4.6-2.5-5.5C636,565.8,635.8,564.3,635.1,564.7z M418.3,403.4c-1.8,2.3-1.4,5.1-1.2,7.8c-1.4,0.4-2.4-2.5-3.3-0.9
				c-1.3,2.3,2.1,2.6,2.8,4.2c-2.7,0.3-3.7,1.6-3.9,4.5c-0.4,7.8-0.6,7.8-4.4,11c-1-2.4,1.1-4.8-0.4-7c-0.6-0.8-0.8-2.1-2.1-1.9
				c-1,0.1-1.4,1.2-1.4,2c-0.1,4.8-2.3,9.4-1.1,14.3c-0.5,1.8-4.1,4.1,0.8,5.2c-0.2,2.7-1.2,4.8-3.5,6.6c-3,2.4-4.4,6.5-3.7,9.8
				c0.9,3.7-0.5,7.4,1,11c0.5,1.1,1.9,5.1-3.1,4.1c-2-0.4-1.9,3.2-1.6,4.7c0.7,4.1,0.2,7.9-1.1,11.8c-0.7,2.1,0.7,5.6-3.8,5.4
				c-0.5,0-1.2,2-1.6,3.1c-1.9,5.6-0.9,11.5-1.4,17.3c-0.1,0.9,0.6,1.7,1.6,1.7c1.1,0,1.3-0.9,1.5-1.8c0.9-4.2,0.5-8.4-0.2-13.5
				c3.3,2.1,2,4.5,2.2,6.5c0.1,1.9,0,3.8-0.3,5.7c-0.3,1.9,0.3,2.9,2.4,3.2c2.5,0.4,3-1.1,3.3-3c0.3-2.1,0.4-4.2,1.1-6.1
				c0.8-2.1-1.2-6,3.6-6c0.6,0,0.2-0.8,0.2-1.3c0.3-8.5,0.2-17.5,2.3-25.4c1.7-6.3,0.4-13.3,4.4-19.1c1.9-2.9-2-6.2-0.8-9.6
				c0.6-1.7-1.2-4.8,2.4-4.6c3.4,0.1,2.8,3,2.7,5.2c-0.2,3.4-2,6.8-0.1,10.3c3.8-14.4,4.5-29.1,4.8-43.9c0.9-0.9,0.7-2.1,0.7-3.2
				C419.3,408.9,418.7,406.1,418.3,403.4z M598.9,583.3c0.2,0.4,0.3,0.8,0.5,1.2c-0.8,3.7,2.6,5.5,4,8.2c1-3.8-0.7-6.6-3.3-9
				C599.7,583.5,599.3,583.4,598.9,583.3z M359.8,472.3c-0.9,2.8-5.8,5-1.3,8.6c-1.7,1.6-2,3.4-0.8,5.6c1.9-1.5,1.2-3.5,1.5-5.2
				C359.6,478.3,360.6,475.4,359.8,472.3z M615.9,596.2c0,0.1,0,0.3,0.1,0.4c0.1,0.1,0.3,0.2,0.4,0.2c0.3,3.5,1.7,6.4,4.2,9.3
				c0.9-5.6-0.7-8.8-4.3-9.2C616.2,596.6,616,596.4,615.9,596.2z M361,468.8c2.3-3.5,3.4-7.4,3.1-11.7c0.1-0.1,0.2-0.3,0.3-0.4
				c-0.1,0.1-0.3,0.2-0.4,0.3C361.1,460.3,360.2,463.1,361,468.8z M472.6,377.4c2-6.8,2.3-13.8,2-20.9c0.5-2.5,0.9-5,0.4-8.5
				c-1.8,3-1,5.6-1.4,7.9C472,363,473.5,370.2,472.6,377.4z M355.7,565.2c0-0.1-0.1-0.3-0.1-0.3c-0.1-0.1-0.3-0.1-0.4-0.1
				c-0.5-2.4-0.3-5-2-7.1l-0.2-0.2l0.2,0.2c0.9,2.9-1.5,4.8-2.4,7.1c-0.6,1.5-2.1,3.6,0.1,4.5c2.4,0.9,3.3-1,3.6-3.2
				c0-0.5,0.5-0.9,0.8-1.3C355.4,564.8,355.5,565,355.7,565.2z M630.6,641.9c-0.8-2.7-1.5-5.3-4-7c-0.6-0.4-1-1-1.8-0.5
				c-0.6,0.4-1.2,1.2-0.7,1.7c2.2,2,1.9,5.1,3.4,7.3c2,2.9,1.6-0.9,2.6-0.9C630.8,642.7,630.9,642.5,630.6,641.9z M349.6,451
				c1.1,2.3,2.5,4.5,2.8,7.2c1.1-4.8,0.4-9.5-0.9-14.1C348.9,444.7,348,447.6,349.6,451z M380.3,528.9c1.5-8.5,2.3-17,0.9-25.5
				c1.1-1.5,1.6-3.2,1.2-5.4c-1.7,1.9-1.2,3.7-1.2,5.4C379,511.8,378,520.3,380.3,528.9z M520.4,215.6c-0.1,0.1-0.2,0.2-0.4,0.4
				c0.3,0.1,0.5,0.3,0.8,0.4c-2.1,10.1,4.6,9.5,11.2,8.5c-0.9-4.7-4.3-7.5-11.2-8.5C520.7,216.2,520.5,215.9,520.4,215.6z
				 M643.1,625c0.4,0.6,0.7,2.8,1.7,0.7c0.9-1.9-0.2-4-1-5.9c-2.4-5.8-4.5-11.6-6.8-17.4c-0.5-1.2-1.1-3-2.8-2.4
				c-1.8,0.6-1.2,2.4-0.8,3.6c2.8,7.2,5,14.7,9.5,21.2L643.1,625z M366,421.9c-0.3-1.5-0.3-2.7-0.8-3.7c-0.9-1.7-2.6-2.7-4.4-1.9
				c-1.9,0.8-2.1,2.6-0.9,4.4c0.5,0.6,2,0.7,0.7,2.3c-4.8,5.6-4.8,8-0.1,15c3.3-6.1,6.8-11.7,8.1-18.2c0.1-0.3,0.2-0.6,0.4-0.9
				c-0.1,0.3-0.3,0.6-0.4,0.9C367.8,420.3,367,421,366,421.9z M662.8,696.5c0.8,10.1,7,18.2,10.8,27.1c1.1,2.6,3.7,4.9,7.6,6.4
				c-0.6-5.5-4.6-8.6-6.5-12.7c-0.9-2-1.9-4-2.5-6.2c-2.3-7.8-4.9-15.6-7.5-23.3c-0.6-1.7-1-3.4-0.5-5.1c0.9-2.9-0.1-5.1-2.4-6.8
				c2.3-0.4,3.1-1.8,3.2-4c0.4-9.2-2.7-17.6-5.5-26.9c-1.6,4-1.5,7.2-0.5,10.1c1.9,5.3,2.5,10.5,0.5,15.9c-0.7,2.1,1.3,3.4,2.3,5
				C660.8,683,662.3,689.7,662.8,696.5z M449.2,415.2c0.8-1.8,0.8-1.7,4.2-3.9c0.8-0.5,1.1-2.1,1.4-3.3c2.2-10.3,5.6-20,12.8-28
				c0.4-0.5,0.5-1.3,0.5-2c0-0.5-0.3-0.9-0.6-1.8c-5.4,4.4-8.3,10.3-11.3,16c-2.6,5.1-4.9,10.3-8.3,15c-2.5,3.5-3.7,7.6-0.6,11.6
				c-3.5,2.7-2.1,6.6-2.6,10c-0.1,0.7,0.3,1.4,1.2,1.4c1.1,0,1.4-0.9,1.4-1.8c0.2-3.2,1.1-6.5,0-9.7
				C447.9,417.6,448.7,416.4,449.2,415.2z M653,627.7c-1.3,0-1.7,1.4-1.2,2.4c0.8,1.8,0.2,5,2.9,4.8c2.1-0.1,1.9-3,1.9-4.8
				c0-2-0.1-4.2-1.9-5.7c-1-1.6-2.5-2.9-2.8-4.9l-0.1,0.1c2.5-0.3,1.9-2,1.7-3.5c-0.8-8.9-4.8-16.5-9.8-23.8c-0.3-0.4-0.7-1-1.1-1.1
				c-1.7-0.3-3.3-2.9-4.5-1.6c-1.8,1.9,0,4.1,1.6,5.3c2.5,1.7,4.1,3.2,1.9,6.2c-0.7,0.9-0.5,2,0.1,2.9c3.7,6.1,5.3,12.9,8.1,19.3
				c1.5,3.6,2.9,2.4,4.9,1C654.2,625.4,655.9,627.5,653,627.7z M576,638.3c0.5,3.1-1.4,6.9,4.8,7.1c4,0.1,6.1,4.3,7.4,7.5
				c3.3,7.4,10.6,9.8,16.4,14.3c0.7,0.6,1.7,0.7,2.2-0.4c0.6-1.5-0.5-2.5-1-3.8c-3.8-10.1-13.7-14.4-20.9-21.2
				c-0.9-0.8-2-2.5-3.4-0.4l0,0C579.2,641.3,579.1,637.8,576,638.3z M674.8,730.2c-1.2-3.7-5.2-4.8-7.6-7.4c0.1,8.6,4.9,15,10.1,21
				c0.5,0.6,2.1,1.1,2.3,0.9c3.9-5.2,5.7,0.5,8,1.7c2.7,1.4,7,1.5,6.6,6.6c-0.1,1.8,2.8,3.8,4.5,5.9c1.1-1.7,1.8-3.3,0.2-5
				c-1.1-1.2-1.2-2,0.3-2.8l-0.1,0.1c-0.1-1.5-0.8-2.8-1.8-3.7c-6.7-5.3-12.6-11.6-21.1-14.4l0.1,0
				C675.8,732.2,675.2,731.2,674.8,730.2L674.8,730.2z M625.8,549.8c-2-5.8-4.1-11.6-5.9-16.7c1.1,8,2.2,16.6,3.6,25.2
				c0.3,2.1,1.3,3.9-1.4,5.3c-1.8,0.9-1.7,2.8-0.5,4c3.3,3.5,1.7,9.6,6.2,12c2.1,1.1,5-4.5,8.3,0.3c-3.6-10.1-5.3-20.2-9.8-29.5
				C626.1,550.1,625.9,550,625.8,549.8z M420.8,367.5c-1.3-3.5-2.6-6.9-3.9-10.4c-0.3-0.8-1.2-1.8-0.2-2.3c1.7-0.9,2.5-1.2,0-2.2
				c-1.8-0.7-2.3,0.1-2.5,1.4c-0.4,3.4-1.3,7-0.7,10.3c1.3,8.4-2.6,16.4-1.9,24.7c0.1,1-0.9,2.2-1.7,3c-5.9,5.7-4.6,13.3-6.2,21.1
				c7.3-5.7,5.4-14.6,10.4-20.2c2.1,3,4,3.7,5.2-0.9c0.9-3.3,0-8.2,1.2-9.7c2.5-3.1,1.4-8.5,6.3-10c0.3-0.1,0.5-0.8,1-1.9
				C424.4,371.2,422.8,369,420.8,367.5L420.8,367.5z M487.8,363c5.5-9.5,11.7-18.7,18.9-26.9c5.6-6.4,7.2-14.5,11.8-21.3
				c-5.8,1-6.2,9.6-13.6,8c3.1-8.5,9.7-14.6,15.7-21l0.1,0c-4.4,0.7-7.5,3.8-11,6.1c-10.5,6.7-12.7,18.1-16.5,28.5
				c-0.2,0.5-0.1,1.2-0.4,1.5c-8.9,9.9-6.1,22.6-8.9,34c-0.1,0.1-0.3,0.1-0.4,0.3c-0.1,0.1,0,0.3,0,0.4c0.1-0.2,0.2-0.5,0.4-0.7
				C487.1,369.7,486.2,365.8,487.8,363z M380.3,570.6c0.5-1.5-0.3-2.8-1.3-3.6c-1.3-1-1.7,1.3-2.9,1.3c-0.3-0.2-0.7-0.5-1-0.7
				c0,0.1,0.1,0.3,0.1,0.4c0.3,0.1,0.6,0.2,0.9,0.3c-3.5,2.9-5,5.5-3.9,10.8c1.1,5.4-0.1,11.8-4.3,16.7c-0.1-0.1-0.1-0.3-0.2-0.4
				c0.1,0.1,0.2,0.3,0.2,0.4c0.6,4.9,0.1,9.7-0.6,14.5c-0.4,0.7-0.8,1.7,0.2,1.9c0.6,0.2,0.5-0.9,0.5-1.5c2.7-3.9,3.6-8.2,3.2-13.4
				c1.6,1.6,1.8,3.7,3.9,3.8l0,0c0.5,2.9-2.3,5.6,0,9.4c3.1-4.7,1.6-10.6,5.1-14.7c5.2,4.6-2.2,10.4,2.4,16c1.6-5.7,5.1-10,3.3-15.6
				c-0.5-1.6-0.9-3.6,1-4c3.8-0.9,4.4-4.1,4.8-6.7c1.4-9.2,4.6-18.2,4.6-27.6c0-0.9,0.1-1.7-1.3-2.5c-1.6,2.1-1.2,9.9-7.2,2.8
				c-0.9,3.9-2.2,7.2,0,11.4c2.3,4.5-2,8.7-2.9,13.7c-1.2-1.2-2-2.1-2.8-2.9c-2.1,0.7-0.7,3-2.5,4.1c-1.1-3.5-3.7-6.5-1.8-10.3l0,0
				C379.6,573.5,379.8,572,380.3,570.6z M646.2,733.5c0.2,1.2,0.9,3.1,1.9,2.8c5.9-1.9,7.2,4,10.9,5.8c4.6,2.2,8.7,5.2,13.4,7.3
				c1.5,0.7,2.8,1.8,4.1,0c1.2-1.6-0.3-2.5-1.4-3.4c-1.6-1.4-3-3.2-4.9-3.9c-8.1-3.3-13.7-9.4-19.7-15.2c-1.4-1.4-2.6-4.7-5.3-3.1
				c-2.3,1.3,0.4,3.7,0.2,5C645.8,730.7,646,732.1,646.2,733.5z M433.9,345.4c6.1-4.4,21.7-30.3,21.6-36.8
				C445.1,320,440.1,333.1,433.9,345.4z M583.9,668.7c-3.7-4.6-7.1-9.5-10.6-14.2c-0.7-0.9-1.4-2.6-2.8-1.6
				c-1.3,0.9-0.8,2.7,0.1,3.8c1.5,1.7,5.1,2.5,2.2,5.8c-0.1,0.1,0.5,1.1,0.8,1.1c6.7,0.8,7.5,6.9,10.2,11.1c1.2,1.9,2.4,3.6,4.3,4.9
				C588.3,675.1,586.5,671.9,583.9,668.7z M640.4,717.9c-0.5-1.7-1.2-2.7-3.7-2.2c-3.3,0.7-1.3,2.7-1.1,3.5
				c2.5,7.4,3.5,15.2,8.1,23.5C644.4,733.3,642.6,725.6,640.4,717.9z M409,476.3c-0.8,9.8-5.2,19.4-1.7,29.4c0.2,0.6,0.5,1.8,0.2,2
				c-6.7,4.4-1.7,10.1-1.8,15.2c0,1,0.1,2.1,0.3,3.1c0.4-3.3,0.9-6.6,0.1-10c-0.2-0.7-0.4-1.5-0.1-2c5.2-10.4,0.5-22.3,5.1-32.8
				c0.7-1.6,0.1-3.8-1.5-5.2C409.3,476.1,409,476.2,409,476.3z M370.4,373.7c-1.2,4.9-2.3,9.8-3.3,14.7c-0.2,0.9-0.9,3,1.2,1.8
				c0.9-0.6,2.1,2.6,2.5-0.6c0.8-8.5,2.2-16.9,3.4-25.3C370.7,366.8,371.2,370.5,370.4,373.7z M596.3,535.4c1.5,2.6,1.5,5-0.4,7.4
				c2.6,1.4,4.2,3.2,4.6,6.4c0.4,3.2,2,6.2,3.1,9.3c0.3,0.9,0.7,1.8,1.7,1.6c1.4-0.3,1.4-1.6,0.8-2.5c-3.3-5.6-3.9-12.1-6.6-17.9
				c-1.7-3.7-1.6-8.2-5-11.4C594.3,531.1,595.1,533.3,596.3,535.4z M647.1,693.6c-0.5-6.5-4-11.5-8.1-16.3c-0.6-0.7-1.6-1.7-2.7-1
				c-1.3,0.8-0.5,2.2-0.4,3.3c0,0.3,0.3,0.6,0.5,0.9c4.2,4.6,7.5,9.5,7.6,16.2C646.4,695.9,647.2,694.9,647.1,693.6z M617.9,647.7
				c1.1,1,2.7,1.7,4,2.4c0.7,0.4,1.6,1.1,2.3,0.2c0.6-0.8,0.3-1.8-0.3-2.4c-2.1-2-3.1-4.6-4.7-6.9c-1-1.5-1.6-4.7-3.5-3.8
				c-1.8,0.8-2.5,3.9-3.6,5.7C612.9,646.2,616.1,646,617.9,647.7z M401.8,577.7c-0.1-1.2,0.5-3.4-1.7-3.1c-2.3,0.3-0.7,1.9-0.7,3.1
				c0.2,8.3-0.7,16.6-2,24.8c-0.1,0.8-0.7,1.6,1,3.6C399.2,595.8,402.2,587,401.8,577.7z M618.7,559.7c0.2,0.8,0.9,1.6,2,1.2
				c1.1-0.4,1.1-1.4,0.9-2.2c-1.7-5.5-3.5-10.9-5.3-16.4c-0.5,0.1-1,0.3-1.5,0.4C614.9,548.6,617,554.1,618.7,559.7z M388.9,541.6
				c-0.4,0.5,0,2.6,1.5,2.9c1.9,0.4,1.7-1.5,2-2.5c1-3.5,2.5-7.2-0.3-11.4C390.6,534.6,391.4,538.6,388.9,541.6z M655.1,724.6
				c0,2,0.8,3.2,3.3,2.6c2.5-0.6,1.2-2.2,1-3.1c-0.6-2.2-1.7-4.1-3.9-5.9C655.3,720.6,655,722.6,655.1,724.6z M666.8,766
				c-0.1-4-1-7.8-4.1-11.5C660.7,759.9,665.8,762.2,666.8,766z M511.6,234.4c1.2,0.8,2.5,1.7,3.5-0.2c1.9-3.5-0.8-5.2-3-7.4
				C510.5,229.5,508,231.9,511.6,234.4z M439.9,357.5c-4.2,4.7-1.6,8.4-0.3,12.7C443.6,365.6,439.3,362.1,439.9,357.5z M688.7,752.5
				c1.1,4.7,4.3,8.1,8.3,11C695,759.3,693.4,754.8,688.7,752.5z M430.9,419.3c-2.3,4.3-2.9,10.6-1.1,16.5
				C429.9,430.3,432.7,425,430.9,419.3z M636.2,628.2c0-6.7-0.8-8-5.6-8.7C632.5,622.5,633.3,626,636.2,628.2z M462.1,399.8
				c-3.5,5.5-1.8,9.7-1.6,13.9c0.4-0.1,0.9-0.1,1.3-0.2C461.9,409.4,462,405.4,462.1,399.8z M358.2,370.7c-3.3,0.3-3.7,3.4-3.7,5.8
				c2.9,2.1,2-5.6,5.7-1C359.6,373.5,360.7,370.4,358.2,370.7z M507.7,203.6c-3-2.3-5.7-2.5-10.1-1.2
				C501.5,204.2,504.1,205.2,507.7,203.6z M652,658.5c-1.1,3.5,1.2,6.1,2.6,8.9C655.1,664,653.5,661.3,652,658.5z M440.7,433.8
				c0-0.9,0.4-2.5-1.1-2.3c-1.3,0.1-2.5,1-2,2.9c0.9,2.9,1.5,5.8,2.3,8.7c0.3,0,0.6-0.1,0.8-0.1
				C440.7,439.9,440.8,436.9,440.7,433.8z M629.1,589.5c-0.7-1.7,0.6-3.9-1.6-5.2c-0.3-0.2-1.2,0-1.3,0.2c-1,2.2,0.6,3.9,1.2,5.8
				c0.2,0.6,0.7,1.1,1.3,1.9C630.1,590.9,629.4,590.2,629.1,589.5z M598.1,559c-0.3-0.6-1-1-1.7-0.7c-0.7,0.3-0.9,1.1-0.6,1.8
				c0.7,1.8,2.6,3.4,1,5.6c0.4,0.3,0.8,0.8,1.2,0.8c0.4,0,1-0.6,1-0.9c0.1-1.2,0.1-2.4,0.1-3.7C598.7,560.9,598.5,559.9,598.1,559z
				 M596.2,570.4c-0.5,4.1,1.1,6.6,4.1,9.6C600.2,575.8,599.2,573.1,596.2,570.4z M430.6,320.2c3.4-1.9,3.4-1.9,4.2-6
				C432.2,315.7,432.3,317.9,430.6,320.2z M650.4,703.7c1.1-0.1,1.5-1.1,1-1.9c-1-1.5-1-4.1-3.3-4.1c-1.2,0-1.5,1.7-1.4,2.9
				C647.4,702.3,648.2,703.9,650.4,703.7z M623.9,660.5c0,3,0,3,3.3,8.6C626.8,666,625.4,663.7,623.9,660.5z M363.5,403.1
				c0.3-4.4,0.5-7.3,0.6-10.2C362.5,395.8,362.1,398.6,363.5,403.1z M416.7,522.8c0.1,0,0.1,0,0.2,0c-0.4-3.2-0.9-6.3-1.3-9.5
				c-0.1,0-0.1,0-0.2,0C415.8,516.5,416.2,519.6,416.7,522.8z M374.6,360.8c1.6-0.8,1.3-2,1-3.9C374.2,358.3,374,359.3,374.6,360.8z
				 M640.6,587.4c0.7-2-0.3-2.9-1.2-4.7C638.5,585.1,639.2,586,640.6,587.4z M366.1,364.6c0.9-0.2,0.9-1,0.7-1.6
				c-0.1-0.4-0.5-0.7-0.8-1.1c-0.3,0.5-0.6,1.1-1,1.7C365.5,364,365.9,364.6,366.1,364.6z M621.8,627.4c-0.3,2.2,0.9,3,2,4.7
				C624.3,629.7,623.7,628.5,621.8,627.4z M378.9,562.1c-0.1,0.4,0.4,1.2,0.6,1.1c0.8,0,1.2-0.7,1.1-1.4c0-0.5-0.3-0.9-0.7-1.8
				C379.4,561,379,561.6,378.9,562.1z M553,228.3c0.2-0.2,0.3-0.3,0.5-0.5c-0.1-0.1-0.2-0.2-0.4-0.3c-0.1,0.1-0.2,0.2-0.3,0.3
				C552.9,228,553,228.2,553,228.3z M388.7,554.9c0,0.1,0.2,0.1,0.4,0.2c0.1-0.2,0.1-0.5,0.2-0.7c0-0.1-0.2-0.1-0.4-0.2
				C388.7,554.4,388.7,554.6,388.7,554.9z M354.9,459c0.2-0.1,0.4-0.2,0.5-0.3c-0.1-0.1-0.2-0.3-0.3-0.3c-0.1,0-0.2,0.1-0.3,0.2
				C354.9,458.7,354.9,458.9,354.9,459z M339.7,409.6c0.1-0.1,0.2-0.2,0.2-0.3c0-0.1-0.2-0.2-0.3-0.3c-0.1,0.1-0.1,0.2-0.2,0.3
				C339.5,409.4,339.6,409.5,339.7,409.6z M355.9,454.8l-0.4,0.1l0.3,0.3L355.9,454.8z M440.2,427l-0.1,0.3l0.3-0.1L440.2,427z
				 M475.4,344.8c0.1-0.1,0.1-0.2,0.1-0.4c-0.1,0-0.3-0.1-0.3,0c-0.1,0.1-0.1,0.2-0.1,0.4C475.2,344.8,475.4,344.9,475.4,344.8z
				 M633.9,562.2l-0.3,0.1l0.2,0.2L633.9,562.2z"/>
			<path id="XMLID_2898_" class="st1" d="M337,527.1c2.4-3.7,2.8-7.8,2.6-11.9c-0.3-6.1,0.3-11.9,2.1-17.9
				c1.7-5.5,2.9-11.5,2.4-17.4c-0.2-2.7,0.3-5.9-3.8-7.1c-1.6-0.4-1.3-2.7-0.5-4.2c0.8-1.5,1.9-3,1.2-5.1c-2.8,1.6-3.9,3.9-3.5,7
				c0.2,1,0.4,2.2-0.1,3c-0.9,1.7-1.4,4.7-3.8,4.2c-2-0.4-0.6-3-0.8-4.7c-0.3-2.3,1-4.9-1.1-7.3c-2.6,1.6-1.1,4.6-2.3,6.5
				c-0.6-4.1-1.1-8.3-1.7-12.4c2-5.2,3.7-10.4,4.8-15.9c1.8-8.8,0-18.2,5.1-26.3c0.7-1.1,0.5-3.1,2.5-2.7c1.8,0.3,1.3,2.1,1.8,3.4
				c1.3,3.5-1.1,7.3,1.1,11.9c1.5-4.4,2.7-7.8,3.8-11.2c0.3-0.9,0.3-2.1-0.7-2.2c-5.5-0.5-2.2-3.6-2-5.8c0.7-5.7,4.5-10.7,3-17
				c-0.8-3.1,0.8-6.9,2.6-9.8c0.9-1.4,2.2-3.9,4.3-3.3c2.3,0.6,1.6,3.2,1.4,5c-0.6,9.8-2.6,19.4-4.6,29c-1.7,7.8-2.3,15.8-2.9,23.8
				c-0.4,5.4-1.7,10.9-2.6,16.4c-1.4,8.3,0.9,16.6,1.1,25.1c0-6.1,1.3-11.7,5.9-16.6c0.6,3.7,3.8,6.9,2.3,10.7
				c-2.2,5.6-1,10.8,0.3,16.2c0.3,1.1,0.6,2.5,0.3,3.5c-2.1,7.4-1.4,15.1-2.2,22.6c-0.4,4.1,0,8.9-2.2,12c-3.4,4.8-3,9.6-3,14.8
				c0,4.7,0.8,9.5-0.4,14.5c-4.1-3.9-5.5-8-3.4-13.1c1-2.4,0.7-5.2,1.3-7.7c1-3.7-4-4.1-3.9-7.3c-1.3,0.5-2.5,1-3.8,1.5
				C337.4,529.8,337.2,528.4,337,527.1z M341.1,458.8c1.6-2.2,1.3-3.9,0.4-5.7C341.2,454.8,340.1,456.4,341.1,458.8z"/>
			<path id="XMLID_2894_" class="st1" d="M329.5,472.2c1.3-1.9-0.3-4.8,2.3-6.5c2.1,2.5,0.8,5,1.1,7.3c0.2,1.6-1.2,4.3,0.8,4.7
				c2.4,0.5,2.8-2.6,3.8-4.2c0.4-0.8,0.2-2,0.1-3c-0.5-3.1,0.6-5.4,3.5-7c0.7,2.1-0.4,3.6-1.2,5.1c-0.8,1.5-1.1,3.7,0.5,4.2
				c4.1,1.1,3.6,4.4,3.8,7.1c0.5,5.9-0.7,11.9-2.4,17.4c-1.8,6-2.4,11.8-2.1,17.9c0.2,4.1-0.2,8.3-2.6,11.9
				C334.5,508.8,332,490.5,329.5,472.2z M341.5,483.5c-3.6,2.2-3.6,2.2-0.2,7.3C341.7,487.8,342.6,485.7,341.5,483.5z M341.7,480
				c0.2-0.2,0.4-0.3,0.6-0.5c0,0-0.2-0.2-0.3-0.4c-0.2,0.2-0.4,0.3-0.6,0.5C341.5,479.8,341.6,479.9,341.7,480z"/>
			<path id="XMLID_2893_" class="st1" d="M684.7,771c-0.7-5-1.6-10-6.2-14.4c-1.2,6.2,2.8,10.1,4.1,14.7
				C683.2,771.2,684,771.1,684.7,771z"/>
			<path id="XMLID_2892_" class="st1" d="M324.3,435c2.9-4.4,1.8-9.2,1.1-13.9c-0.2-1.8-1.8-2.4-3.4-2.7
				C322.8,423.9,323.6,429.5,324.3,435z"/>
			<path id="XMLID_2891_" class="st1" d="M348.3,608.8c2.7-2.3,2.7-5.5,3.2-8.6c0.6-3.7-2.7-3.3-4.9-3.8
				C347.2,600.5,347.7,604.6,348.3,608.8z"/>
			<path id="XMLID_2890_" class="st1" d="M705.9,768.3c-0.6-2.9-1.5-5.6-3.5-8.4c-2.3,3.1-1.7,6.2-1.8,9.1
				C702.3,768.7,704.1,768.5,705.9,768.3z"/>
			<path id="XMLID_2889_" class="st1" d="M404.2,442.4c-0.2,2.7-1.2,4.8-3.5,6.6c-3,2.4-4.4,6.5-3.7,9.8c0.9,3.7-0.5,7.4,1,11
				c0.5,1.1,1.9,5.1-3.1,4.1c-2-0.4-1.9,3.2-1.6,4.7c0.7,4.1,0.2,7.9-1.1,11.8c-0.7,2.1,0.7,5.6-3.8,5.4c-0.5,0-1.2,2-1.6,3.1
				c-1.9,5.6-0.9,11.5-1.4,17.3c-0.1,0.9,0.6,1.7,1.6,1.7c1.1,0,1.3-0.9,1.5-1.8c0.9-4.2,0.5-8.4-0.2-13.5c3.3,2.1,2,4.5,2.2,6.5
				c0.1,1.9,0,3.8-0.3,5.7c-0.3,1.9,0.3,2.9,2.4,3.2c2.5,0.4,3-1.1,3.3-3c0.3-2.1,0.4-4.2,1.1-6.1c0.8-2.1-1.2-6,3.6-6
				c0.6,0,0.2-0.8,0.2-1.3c0.3-8.5,0.2-17.5,2.3-25.4c1.7-6.3,0.4-13.3,4.4-19.1c1.9-2.9-2-6.2-0.8-9.6c0.6-1.7-1.2-4.8,2.4-4.6
				c3.4,0.1,2.8,3,2.7,5.2c-0.2,3.4-2,6.8-0.1,10.3c3.8-14.4,4.5-29.1,4.8-43.9l0.1,0c-2.7,0.3-3.7,1.6-3.9,4.5
				c-0.4,7.8-0.6,7.8-4.4,11c-1-2.4,1.1-4.8-0.4-7c-0.6-0.8-0.8-2.1-2.1-1.9c-1,0.1-1.4,1.2-1.4,2c-0.1,4.8-2.3,9.4-1.1,14.3l0.1,0
				C406.9,438.6,404.4,440.7,404.2,442.4L404.2,442.4z"/>
			<path id="XMLID_2883_" class="st1" d="M368,595.7c4.2-4.9,5.4-11.3,4.3-16.7c-1.1-5.3,0.3-8,3.9-10.8l0,0.1
				c1.2,0,1.6-2.3,2.9-1.3c1,0.8,1.8,2.1,1.3,3.6c-0.5,1.4-0.7,3-2.3,3.8c-0.3-0.3-0.6-0.7-0.9-1c-0.1,0.2-0.3,0.4-0.4,0.6
				c0.4,0.1,0.9,0.3,1.3,0.4c-1.9,3.9,0.6,6.9,1.8,10.3c1.8-1.1,0.5-3.4,2.5-4.1c0.8,0.8,1.6,1.6,2.8,2.9c0.9-5,5.1-9.3,2.9-13.7
				c-2.1-4.2-0.9-7.5,0-11.4c5.9,7.1,5.5-0.7,7.2-2.8c1.4,0.7,1.3,1.6,1.3,2.5c0,9.4-3.1,18.4-4.6,27.6c-0.4,2.6-1,5.8-4.8,6.7
				c-1.9,0.4-1.5,2.4-1,4c1.8,5.6-1.6,9.9-3.3,15.6c-4.6-5.6,2.8-11.3-2.4-16c-3.5,4.1-2,9.9-5.1,14.7c-2.4-3.9,0.5-6.6,0-9.4
				c0.1-0.1,0.2-0.3,0.3-0.4c-0.1,0.1-0.2,0.3-0.3,0.4c-2.1-0.2-2.3-2.3-3.9-3.8c0.4,5.2-0.5,9.5-3.2,13.4c-0.2-0.1-0.5-0.3-0.7-0.4
				C368.2,605.3,368.7,600.5,368,595.7L368,595.7z M383.1,587.6c-0.4-0.6-1.3-0.7-1.8-0.1c-1.6,1.9-0.3,3.6,0.3,6.5
				C383.1,591.4,384.3,589.7,383.1,587.6z M390.5,580.3c-1.6,1.3-1.9,2.7-1.1,5.1C391.4,583.4,391,582,390.5,580.3z M392.3,569.8
				c1.2,0.6,1.1-0.7,1.1-1.4c0-0.5-0.3-0.9-0.6-2C392,568,391.4,569.4,392.3,569.8z M391.3,574.1c0,0.1,0.2,0.2,0.3,0.2
				c0-0.2-0.1-0.4-0.1-0.7C391.4,573.9,391.3,574,391.3,574.1z"/>
			<path id="XMLID_2879_" class="st1" d="M520.7,301.7c-6.1,6.4-12.7,12.5-15.7,21c7.5,1.6,7.9-7,13.6-8
				c-4.6,6.8-6.2,14.9-11.8,21.3c-7.3,8.2-13.4,17.4-18.9,26.9c-1.6,2.8-0.7,6.7-3.9,8.9l0.1,0c2.7-11.4,0-24.1,8.9-34
				c0.3-0.3,0.2-1,0.4-1.5c3.8-10.5,6-21.8,16.5-28.5C513.3,305.6,516.3,302.5,520.7,301.7L520.7,301.7z M495,342
				c0.1-0.2,0.1-0.5,0.2-0.7C495.1,341.5,495,341.7,495,342c-1.2,0.4-1.7,1.2-1.9,2.3c-0.1,0.2-0.2,0.5-0.3,0.7
				c0.1-0.2,0.2-0.5,0.3-0.7C494.2,343.9,494.7,343.1,495,342z M490.1,352.5c1.1,0.7,1.5,0,1.8-0.5c0.5-0.9,1-1.8-0.1-3
				C490.2,350,490.1,351.2,490.1,352.5z"/>
			<path id="XMLID_2878_" class="st1" d="M420.8,367.5c-1.3-3.5-2.6-6.9-3.9-10.4c-0.3-0.8-1.2-1.8-0.2-2.3c1.7-0.9,2.5-1.2,0-2.2
				c-1.8-0.7-2.3,0.1-2.5,1.4c-0.4,3.4-1.3,7-0.7,10.3c1.3,8.4-2.6,16.4-1.9,24.7c0.1,1-0.9,2.2-1.7,3c-5.9,5.7-4.6,13.3-6.2,21.1
				c7.3-5.7,5.4-14.6,10.4-20.2c2.1,3,4,3.7,5.2-0.9c0.9-3.3,0-8.2,1.2-9.7c2.5-3.1,1.4-8.5,6.3-10c0.3-0.1,0.5-0.8,1-1.9
				C424.4,371.2,422.8,369,420.8,367.5L420.8,367.5z"/>
			<path id="XMLID_2877_" class="st1" d="M682.4,699.8c-5.4-2.4-5.5-8.7-9.6-13.6c-0.8,6.3,0.1,11.3,1.3,16c1.2,4.8,2.6,10.2,5.6,14
				c5.5,7,10.8,14.3,17.1,20.8c-0.9-9.3-3.8-17.9-8.9-25.6C685.4,707.7,683.5,703.9,682.4,699.8L682.4,699.8z"/>
			<path id="XMLID_2876_" class="st1" d="M625.8,549.8c-2-5.8-4.1-11.6-5.9-16.7c1.1,8,2.2,16.6,3.6,25.2c0.3,2.1,1.3,3.9-1.4,5.3
				c-1.8,0.9-1.7,2.8-0.5,4c3.3,3.5,1.7,9.6,6.2,12c2.1,1.1,5-4.5,8.3,0.3c-3.6-10.1-5.3-20.2-9.8-29.5c-0.2,0.2-0.5,0.5-0.6,0.5
				C625,550.4,625.5,550.1,625.8,549.8z"/>
			<path id="XMLID_2875_" class="st1" d="M676.3,733.2c-0.5-1-1-2-1.6-3c-0.1,0.1-0.3,0.1-0.4,0.2c0.2-0.1,0.3-0.1,0.5-0.2
				c-1.2-3.7-5.2-4.8-7.6-7.4c0.1,8.6,4.9,15,10.1,21c0.5,0.6,2.1,1.1,2.3,0.9c3.9-5.2,5.7,0.5,8,1.7c2.7,1.4,7,1.5,6.6,6.6
				c-0.1,1.8,2.8,3.8,4.5,5.9c1.1-1.7,1.8-3.3,0.2-5c-1.1-1.2-1.2-2,0.3-2.8l-0.1,0.1c-0.1-1.5-0.8-2.8-1.8-3.7
				C690.6,742.3,684.7,736,676.3,733.2c-0.2,0-0.3,0.1-0.4,0.2C676,733.3,676.2,733.3,676.3,733.2z"/>
			<path id="XMLID_2874_" class="st1" d="M581.5,641.3c-2.3,0-2.5-3.5-5.6-3.1c0.5,3.1-1.4,6.9,4.8,7.1c4,0.1,6.1,4.3,7.4,7.5
				c3.3,7.4,10.6,9.8,16.4,14.3c0.7,0.6,1.7,0.7,2.2-0.4c0.6-1.5-0.5-2.5-1-3.8c-3.8-10.1-13.7-14.4-20.9-21.2
				C584,640.9,582.9,639.2,581.5,641.3L581.5,641.3z"/>
			<path id="XMLID_2873_" class="st1" d="M645.5,728.7c0.3,2.1,0.4,3.4,0.7,4.8c0.2,1.2,0.9,3.1,1.9,2.8c5.9-1.9,7.2,4,10.9,5.8
				c4.6,2.2,8.7,5.2,13.4,7.3c1.5,0.7,2.8,1.8,4.1,0c1.2-1.6-0.3-2.5-1.4-3.4c-1.6-1.4-3-3.2-4.9-3.9c-8.1-3.3-13.7-9.4-19.7-15.2
				c-1.4-1.4-2.6-4.7-5.3-3.1C643.1,725,645.7,727.4,645.5,728.7z"/>
			<path id="XMLID_2870_" class="st1" d="M651.9,619.4c0.3,2,1.8,3.3,2.8,4.9l0.1-0.1c-2,1.4-3.4,2.6-4.9-1
				c-2.8-6.4-4.4-13.3-8.1-19.3c-0.6-1-0.8-2-0.1-2.9c2.2-3,0.6-4.5-1.9-6.2c-1.6-1.2-3.4-3.4-1.6-5.3c1.3-1.3,2.8,1.3,4.5,1.6
				c0.4,0.1,0.8,0.6,1.1,1.1c5,7.3,9,14.9,9.8,23.8C653.7,617.5,654.4,619.2,651.9,619.4L651.9,619.4z M648.5,617.3
				c0.2,0.1,0.4,0.1,0.6,0.2c0-0.1,0-0.3-0.1-0.4c-0.1-0.1-0.2-0.1-0.4-0.2C648.7,617,648.6,617.1,648.5,617.3z"/>
			<path id="XMLID_2869_" class="st1" d="M447.2,418.8c0.7-1.2,1.4-2.4,2-3.6c0.8-1.8,0.8-1.7,4.2-3.9c0.8-0.5,1.1-2.1,1.4-3.3
				c2.2-10.3,5.6-20,12.8-28c0.4-0.5,0.5-1.3,0.5-2c0-0.5-0.3-0.9-0.6-1.8c-5.4,4.4-8.3,10.3-11.3,16c-2.6,5.1-4.9,10.3-8.3,15
				C445.4,410.8,444.2,414.8,447.2,418.8L447.2,418.8z"/>
			<path id="XMLID_2868_" class="st1" d="M661.9,676.1c-1.1,6.9,0.4,13.6,0.9,20.4c0.8,10.1,7,18.2,10.8,27.1
				c1.1,2.6,3.7,4.9,7.6,6.4c-0.6-5.5-4.6-8.6-6.5-12.7c-0.9-2-1.9-4-2.5-6.2c-2.3-7.8-4.9-15.6-7.5-23.3c-0.6-1.7-1-3.4-0.5-5.1
				c0.9-2.9-0.1-5.1-2.4-6.8L661.9,676.1z"/>
			<path id="XMLID_2867_" class="st1" d="M455.5,308.6c-10.5,11.4-15.4,24.5-21.6,36.8C440,340.9,455.6,315.1,455.5,308.6z"/>
			<path id="XMLID_2866_" class="st1" d="M368.6,419.6c-0.8,0.7-1.5,1.3-2.6,2.3c-0.3-1.5-0.3-2.7-0.8-3.7c-0.9-1.7-2.6-2.7-4.4-1.9
				c-1.9,0.8-2.1,2.6-0.9,4.4c0.5,0.6,2,0.7,0.7,2.3c-4.8,5.6-4.8,8-0.1,15C363.8,431.7,367.2,426.2,368.6,419.6L368.6,419.6z"/>
			<path id="XMLID_2865_" class="st1" d="M588,679.6c0.3-4.5-1.5-7.8-4.1-10.9c-3.7-4.6-7.1-9.5-10.6-14.2c-0.7-0.9-1.4-2.6-2.8-1.6
				c-1.3,0.9-0.8,2.7,0.1,3.8c1.5,1.7,5.1,2.5,2.2,5.8c-0.1,0.1,0.5,1.1,0.8,1.1c6.7,0.8,7.5,6.9,10.2,11.1
				C584.9,676.6,586.1,678.2,588,679.6z"/>
			<path id="XMLID_2864_" class="st1" d="M643.7,742.7c0.7-9.5-1.1-17.1-3.3-24.8c-0.5-1.7-1.2-2.7-3.7-2.2
				c-3.3,0.7-1.3,2.7-1.1,3.5C638.1,726.6,639.1,734.4,643.7,742.7z"/>
			<path id="XMLID_2863_" class="st1" d="M562.4,610c-2.5,2.4-3.5,5.3-2.8,8.7c5.1,1.3,5.8,6.2,8.1,9.7c2,3,3.4,6.3,5.1,9.6
				c0.8-0.6,1.3-0.9,1.3-1C569.9,628.1,570,617.5,562.4,610z"/>
			<path id="XMLID_2862_" class="st1" d="M409.5,476c-0.2,0.1-0.5,0.2-0.5,0.3c-0.8,9.8-5.2,19.4-1.7,29.4c0.2,0.6,0.5,1.8,0.2,2
				c-6.7,4.4-1.7,10.1-1.8,15.2c0,1,0.1,2.1,0.3,3.1c0.4-3.3,0.9-6.6,0.1-10c-0.2-0.7-0.4-1.5-0.1-2c5.2-10.4,0.5-22.3,5.1-32.8
				C411.7,479.6,411.2,477.4,409.5,476z"/>
			<path id="XMLID_2861_" class="st1" d="M643.1,625c0.4,0.6,0.7,2.8,1.7,0.7c0.9-1.9-0.2-4-1-5.9c-2.4-5.8-4.5-11.6-6.8-17.4
				c-0.5-1.2-1.1-3-2.8-2.4c-1.8,0.6-1.2,2.4-0.8,3.6c2.8,7.2,5,14.7,9.5,21.2l0.3-0.2L643.1,625z"/>
			<path id="XMLID_2860_" class="st1" d="M661.8,676c2.3-0.4,3.1-1.8,3.2-4c0.4-9.2-2.7-17.6-5.5-26.9c-1.6,4-1.5,7.2-0.5,10.1
				c1.9,5.3,2.5,10.5,0.5,15.9c-0.7,2.1,1.3,3.4,2.3,5L661.8,676z"/>
			<path id="XMLID_2859_" class="st1" d="M374.2,364.2c-3.6,2.6-3,6.2-3.8,9.5c-1.2,4.9-2.3,9.8-3.3,14.7c-0.2,0.9-0.9,3,1.2,1.8
				c0.9-0.6,2.1,2.6,2.5-0.6C371.7,381.1,373.1,372.7,374.2,364.2z"/>
			<path id="XMLID_2858_" class="st1" d="M594.5,528.3c-0.2,2.8,0.6,5.1,1.8,7.2c1.5,2.6,1.5,5-0.4,7.4c2.6,1.4,4.2,3.2,4.6,6.4
				c0.4,3.2,2,6.2,3.1,9.3c0.3,0.9,0.7,1.8,1.7,1.6c1.4-0.3,1.4-1.6,0.8-2.5c-3.3-5.6-3.9-12.1-6.6-17.9
				C597.8,536,597.9,531.5,594.5,528.3z"/>
			<path id="XMLID_2857_" class="st1" d="M644.1,696.7c2.4-0.8,3.1-1.8,3-3.1c-0.5-6.5-4-11.5-8.1-16.3c-0.6-0.7-1.6-1.7-2.7-1
				c-1.3,0.8-0.5,2.2-0.4,3.3c0,0.3,0.3,0.6,0.5,0.9C640.6,685.1,643.9,690.1,644.1,696.7z"/>
			<path id="XMLID_2856_" class="st1" d="M612.2,642.9c0.7,3.3,3.9,3.2,5.7,4.8c1.1,1,2.7,1.7,4,2.4c0.7,0.4,1.6,1.1,2.3,0.2
				c0.6-0.8,0.3-1.8-0.3-2.4c-2.1-2-3.1-4.6-4.7-6.9c-1-1.5-1.6-4.7-3.5-3.8C614,638,613.3,641,612.2,642.9z"/>
			<path id="XMLID_2855_" class="st1" d="M398.4,606c0.7-10.2,3.8-19.1,3.3-28.3c-0.1-1.2,0.5-3.4-1.7-3.1c-2.3,0.3-0.7,1.9-0.7,3.1
				c0.2,8.3-0.7,16.6-2,24.8C397.3,603.3,396.8,604.1,398.4,606z"/>
			<path id="XMLID_2854_" class="st1" d="M520.8,216.4c-2.1,10.1,4.6,9.5,11.2,8.5C531.1,220.2,527.7,217.5,520.8,216.4L520.8,216.4
				z"/>
			<path id="XMLID_2853_" class="st1" d="M381.3,503.4c-2.3,8.5-3.3,16.9-0.9,25.5C381.9,520.4,382.7,511.9,381.3,503.4L381.3,503.4
				z"/>
			<path id="XMLID_2852_" class="st1" d="M614.7,542.7c0.2,5.9,2.3,11.4,4,17c0.2,0.8,0.9,1.6,2,1.2c1.1-0.4,1.1-1.4,0.9-2.2
				c-1.7-5.5-3.5-10.9-5.3-16.4C615.7,542.5,615.2,542.6,614.7,542.7z"/>
			<path id="XMLID_2851_" class="st1" d="M392.1,530.6c-1.5,4-0.6,7.9-3.2,11c-0.4,0.5,0,2.6,1.5,2.9c1.9,0.4,1.7-1.5,2-2.5
				C393.3,538.5,394.9,534.9,392.1,530.6z"/>
			<path id="XMLID_2850_" class="st1" d="M655.4,718.3c-0.2,2.3-0.4,4.4-0.4,6.4c0,2,0.8,3.2,3.3,2.6c2.5-0.6,1.2-2.2,1-3.1
				C658.7,721.9,657.6,720,655.4,718.3z"/>
			<path id="XMLID_2849_" class="st1" d="M447.3,418.8c-3.5,2.7-2.1,6.6-2.6,10c-0.1,0.7,0.3,1.4,1.2,1.4c1.1,0,1.4-0.9,1.4-1.8
				C447.4,425.2,448.3,422,447.3,418.8L447.3,418.8z"/>
			<path id="XMLID_2848_" class="st1" d="M662.8,754.5c-2.1,5.4,3,7.7,4.1,11.5C666.7,762,665.9,758.2,662.8,754.5z"/>
			<path id="XMLID_2847_" class="st1" d="M512.1,226.8c-1.6,2.7-4.1,5-0.5,7.6c1.2,0.8,2.5,1.7,3.5-0.2
				C516.9,230.7,514.2,229,512.1,226.8z"/>
			<path id="XMLID_2846_" class="st1" d="M351.5,444.1c-2.5,0.7-3.5,3.6-1.9,6.9c1.1,2.3,2.5,4.5,2.8,7.2
				C353.5,453.3,352.8,448.7,351.5,444.1L351.5,444.1z"/>
			<path id="XMLID_2845_" class="st1" d="M439.7,370.2c3.9-4.7-0.3-8.1,0.3-12.7C435.7,362.2,438.3,365.8,439.7,370.2z"/>
			<path id="XMLID_2844_" class="st1" d="M630.6,641.9c-0.8-2.7-1.6-5.3-4.1-7c-0.6-0.4-1-1-1.8-0.5c-0.6,0.4-1.2,1.2-0.7,1.7
				c2.2,2,1.9,5.1,3.4,7.3c2,2.9,1.6-0.9,2.6-0.9C630.3,642.3,630.5,642.1,630.6,641.9z"/>
			<path id="XMLID_2843_" class="st1" d="M353.1,557.6c0.9,2.9-1.5,4.8-2.4,7.1c-0.6,1.5-2.1,3.6,0.1,4.5c2.4,0.9,3.3-1,3.6-3.2
				c0-0.5,0.5-0.9,0.8-1.3l0,0C354.7,562.3,354.9,559.7,353.1,557.6L353.1,557.6z"/>
			<path id="XMLID_2842_" class="st1" d="M473.6,355.9c-1.6,7.1-0.1,14.3-1,21.5c2-6.8,2.3-13.8,2-20.9
				C474.3,356.3,473.9,356.1,473.6,355.9z"/>
			<path id="XMLID_2841_" class="st1" d="M697,763.5c-2-4.2-3.6-8.6-8.3-11C689.8,757.2,693,760.6,697,763.5z"/>
			<path id="XMLID_2840_" class="st1" d="M364,457.1c-3,3.2-3.8,6-3,11.7C363.3,465.3,364.4,461.4,364,457.1L364,457.1z"/>
			<path id="XMLID_2839_" class="st1" d="M654.8,624.3c-0.6,1.1,1.1,3.3-1.8,3.4c-1.3,0-1.7,1.4-1.2,2.4c0.8,1.8,0.2,5,2.9,4.8
				c2.1-0.1,1.9-3,1.9-4.8C656.6,628,656.5,625.8,654.8,624.3L654.8,624.3z"/>
			<path id="XMLID_2838_" class="st1" d="M429.8,435.8c0.1-5.5,2.9-10.8,1.1-16.5C428.6,423.6,428,429.8,429.8,435.8z"/>
			<path id="XMLID_2837_" class="st1" d="M630.5,619.5c2,3,2.8,6.4,5.6,8.7C636.2,621.5,635.4,620.2,630.5,619.5z"/>
			<path id="XMLID_2836_" class="st1" d="M461.8,413.5c0.1-4.1,0.1-8.1,0.2-13.7c-3.5,5.5-1.8,9.7-1.6,13.9
				C461,413.6,461.4,413.6,461.8,413.5z"/>
			<path id="XMLID_2835_" class="st1" d="M616.4,596.7c0.3,3.5,1.7,6.4,4.2,9.3C621.5,600.4,619.9,597.2,616.4,596.7L616.4,596.7z"
				/>
			<path id="XMLID_2834_" class="st1" d="M360.2,375.5c-0.6-2,0.5-5.1-2-4.9c-3.3,0.3-3.7,3.4-3.7,5.8
				C357.3,378.6,356.5,370.9,360.2,375.5z"/>
			<path id="XMLID_2833_" class="st1" d="M497.6,202.5c3.9,1.7,6.5,2.7,10.1,1.2C504.7,201.4,502,201.1,497.6,202.5z"/>
			<path id="XMLID_2832_" class="st1" d="M654.6,667.4c0.5-3.4-1.1-6.1-2.6-8.9C650.9,662,653.1,664.6,654.6,667.4z"/>
			<path id="XMLID_2831_" class="st1" d="M440.7,442.9c0-3,0-6.1-0.1-9.1c0-0.9,0.4-2.5-1.1-2.3c-1.3,0.1-2.5,1-2,2.9
				c0.9,2.9,1.5,5.8,2.3,8.7C440.2,443,440.4,443,440.7,442.9z"/>
			<path id="XMLID_2830_" class="st1" d="M628.8,592.3c1.4-1.3,0.6-2.1,0.3-2.8c-0.7-1.7,0.6-3.9-1.6-5.2c-0.3-0.2-1.2,0-1.3,0.2
				c-1,2.2,0.6,3.9,1.2,5.8C627.6,590.9,628.1,591.4,628.8,592.3z"/>
			<path id="XMLID_2829_" class="st1" d="M599,561.8c-0.3-0.9-0.4-1.9-0.9-2.8c-0.3-0.6-1-1-1.7-0.7c-0.7,0.3-0.9,1.1-0.6,1.8
				c0.7,1.8,2.6,3.4,1,5.6c0.4,0.3,0.8,0.8,1.2,0.8c0.4,0,1-0.6,1-0.9C599,564.3,599,563.1,599,561.8z"/>
			<path id="XMLID_2828_" class="st1" d="M359.3,481.3c0.4-3,1.4-5.9,0.6-9c-0.9,2.8-5.8,5-1.3,8.6C358.8,481,359,481.2,359.3,481.3
				z"/>
			<path id="XMLID_2827_" class="st1" d="M600.3,580c-0.1-4.3-1.1-7-4.1-9.6C595.7,574.6,597.2,577,600.3,580z"/>
			<path id="XMLID_2826_" class="st1" d="M434.8,314.1c-2.6,1.6-2.5,3.8-4.2,6C434,318.3,434,318.3,434.8,314.1z"/>
			<path id="XMLID_2825_" class="st1" d="M599.3,584.4c-0.8,3.7,2.6,5.5,4,8.2c1-3.8-0.7-6.6-3.3-9
				C599.8,583.9,599.6,584.2,599.3,584.4z"/>
			<path id="XMLID_2824_" class="st1" d="M646.6,700.6c0.8,1.7,1.6,3.3,3.8,3.1c1.1-0.1,1.5-1.1,1-1.9c-1-1.5-1-4.1-3.3-4.1
				C646.9,697.7,646.6,699.4,646.6,700.6z"/>
			<path id="XMLID_2823_" class="st1" d="M627.2,669.1c-0.4-3.1-1.8-5.4-3.3-8.6C623.9,663.5,623.9,663.5,627.2,669.1z"/>
			<path id="XMLID_2822_" class="st1" d="M364.2,392.9c-1.7,2.8-2.1,5.7-0.6,10.2C363.8,398.7,364,395.8,364.2,392.9z"/>
			<path id="XMLID_2821_" class="st1" d="M415.3,513.3c0.4,3.2,0.9,6.3,1.3,9.5c0.1,0,0.1,0,0.2,0c-0.4-3.2-0.9-6.3-1.3-9.5
				C415.5,513.3,415.4,513.3,415.3,513.3z"/>
			<path id="XMLID_2820_" class="st1" d="M417.2,411.3c2.1-2.3,1.5-5.1,1.1-7.9C416.4,405.7,416.9,408.5,417.2,411.3L417.2,411.3z"
				/>
			<path id="XMLID_2819_" class="st1" d="M375.7,356.9c-1.4,1.4-1.7,2.4-1,3.9C376.2,360,375.9,358.8,375.7,356.9z"/>
			<path id="XMLID_2818_" class="st1" d="M639.4,582.7c-0.9,2.4-0.2,3.3,1.2,4.7C641.4,585.4,640.3,584.5,639.4,582.7z"/>
			<path id="XMLID_2817_" class="st1" d="M365,363.5c0.5,0.5,0.9,1.1,1.1,1c0.9-0.2,0.9-1,0.7-1.6c-0.1-0.4-0.5-0.7-0.8-1.1
				C365.7,362.4,365.4,362.9,365,363.5z"/>
			<path id="XMLID_2816_" class="st1" d="M623.8,632.1c0.5-2.4-0.1-3.6-2-4.7C621.5,629.5,622.7,630.4,623.8,632.1z"/>
			<path id="XMLID_2815_" class="st1" d="M417.1,411.2c-1.4,0.4-2.4-2.5-3.3-0.9c-1.3,2.3,2.1,2.6,2.8,4.2l-0.1,0
				C417.4,413.5,417.2,412.4,417.1,411.2C417.2,411.3,417.1,411.2,417.1,411.2z"/>
			<path id="XMLID_2814_" class="st1" d="M474.6,356.5c0.5-2.5,0.9-5,0.4-8.5c-1.8,3-1,5.6-1.4,7.9
				C473.9,356.1,474.3,356.3,474.6,356.5z"/>
			<path id="XMLID_2813_" class="st1" d="M635.5,567.2c0.5,1.8,0.9,3.7,3.3,4.9c-0.2-2.4,0.4-4.6-2.5-5.5
				C636,566.7,635.8,567,635.5,567.2z"/>
			<path id="XMLID_2812_" class="st1" d="M358.6,480.9c-1.7,1.6-2,3.4-0.8,5.6c1.9-1.5,1.2-3.5,1.5-5.2
				C359,481.2,358.8,481,358.6,480.9z"/>
			<path id="XMLID_2811_" class="st1" d="M387.5,611c0.1,0.5,0.1,1.1,0.4,1.5c0.5,0.7,0.8,0.2,0.9-0.3c0.4-1.5,0.7-2.9-0.1-4.4
				C388.2,609,387.8,610,387.5,611L387.5,611z"/>
			<path id="XMLID_2810_" class="st1" d="M381.8,552c1-2.1,0.3-4.2-1-6.4c0.1,1.9,0.1,3.9,0.2,5.8
				C381.2,551.6,381.5,551.8,381.8,552z"/>
			<path id="XMLID_2809_" class="st1" d="M403.4,437.2c-0.5,1.8-4.1,4.1,0.8,5.2l0,0.1C403.9,440.7,403.7,439,403.4,437.2
				L403.4,437.2z"/>
			<path id="XMLID_2808_" class="st1" d="M379.9,560c-0.5,1-0.9,1.5-1,2.1c-0.1,0.4,0.4,1.2,0.6,1.1c0.8,0,1.2-0.7,1.1-1.4
				C380.6,561.4,380.3,561,379.9,560z"/>
			<path id="XMLID_2807_" class="st1" d="M630.6,584.5c0.3,1.3,0.5,2.7,2.3,2.9c0.5-1.7-0.5-2.6-1.8-3.4
				C631,584.2,630.8,584.4,630.6,584.5z"/>
			<path id="XMLID_2806_" class="st1" d="M381.2,503.3c1.1-1.5,1.6-3.2,1.2-5.4C380.8,499.8,381.2,501.6,381.2,503.3L381.2,503.3z"
				/>
			<path id="XMLID_2805_" class="st1" d="M381,551.4c-0.8,0.7-1.8,1.8-0.6,2.4c1.5,0.7,1.2-1,1.4-1.8
				C381.5,551.8,381.2,551.6,381,551.4z"/>
			<path id="XMLID_2804_" class="st1" d="M552.9,227.9c0.1,0.1,0.1,0.3,0.2,0.4c0.2-0.2,0.3-0.3,0.5-0.5c-0.1-0.1-0.2-0.2-0.4-0.3
				C553.1,227.6,553,227.8,552.9,227.9z"/>
			<path id="XMLID_2803_" class="st1" d="M631.2,584.1c0.1-0.6,0.2-1.4-0.7-1.5c-0.2,0-0.5,0.3-0.8,0.4c0.3,0.5,0.7,1,1,1.5
				C630.8,584.4,631,584.2,631.2,584.1z"/>
			<path id="XMLID_2802_" class="st1" d="M376.2,568.3c-0.3-0.2-0.7-0.5-1-0.7c0,0.1,0.1,0.3,0.1,0.4
				C375.6,568,375.9,568.1,376.2,568.3L376.2,568.3z"/>
			<path id="XMLID_2801_" class="st1" d="M367.5,610.1c-0.4,0.7-0.8,1.7,0.2,1.9c0.6,0.2,0.5-0.9,0.5-1.5
				C368,610.4,367.7,610.3,367.5,610.1z"/>
			<path id="XMLID_2800_" class="st1" d="M388.8,554.1c-0.1,0.3-0.1,0.5-0.1,0.8c0,0.1,0.2,0.1,0.4,0.2c0.1-0.2,0.1-0.5,0.2-0.7
				C389.2,554.3,388.9,554.2,388.8,554.1z"/>
			<path id="XMLID_2799_" class="st1" d="M520.8,216.4c-0.1-0.3-0.3-0.5-0.4-0.8c-0.1,0.1-0.2,0.2-0.4,0.4
				C520.3,216.1,520.5,216.3,520.8,216.4L520.8,216.4z"/>
			<path id="XMLID_2798_" class="st1" d="M354.9,458.6c0,0.1,0,0.3,0.1,0.4c0.2-0.1,0.4-0.2,0.5-0.3c-0.1-0.1-0.2-0.3-0.3-0.3
				C355.1,458.4,355,458.5,354.9,458.6z"/>
			<path id="XMLID_2797_" class="st1" d="M368.6,419.7c0.1-0.3,0.2-0.6,0.4-0.9C368.8,419,368.7,419.3,368.6,419.7L368.6,419.7z"/>
			<path id="XMLID_2796_" class="st1" d="M339.4,409.3c0.1,0.1,0.2,0.2,0.3,0.3c0.1-0.1,0.2-0.2,0.2-0.3c0-0.1-0.2-0.2-0.3-0.3
				C339.6,409.1,339.5,409.2,339.4,409.3z"/>
			<path id="XMLID_2795_" class="st1" d="M636.2,566.5c-0.3-0.7-0.5-2.2-1.1-1.8c-1.1,0.6-0.2,1.7,0.4,2.5
				C635.8,567,636,566.7,636.2,566.5z"/>
			<path id="XMLID_2794_" class="st1" d="M364.1,457.1c0.1-0.1,0.2-0.3,0.3-0.4C364.3,456.9,364.1,457,364.1,457.1L364.1,457.1z"/>
			<path id="XMLID_2793_" class="st1" d="M518.3,237.8c-0.1-0.1-0.3-0.2-0.4-0.3C518,237.6,518.2,237.7,518.3,237.8L518.3,237.8z"/>
			<path id="XMLID_2792_" class="st1" d="M519.4,237.7c-0.4,0.1-0.7,0.1-1.1,0.2l0.1-0.1C518.8,238.5,519.1,238.3,519.4,237.7
				L519.4,237.7z"/>
			<path id="XMLID_2791_" class="st1" d="M484,371.9c-0.1,0.1-0.3,0.1-0.4,0.3c-0.1,0.1,0,0.3,0,0.4
				C483.7,372.3,483.8,372.1,484,371.9C483.9,371.9,484,371.9,484,371.9z"/>
			<polygon id="XMLID_2790_" class="st1" points="387.4,611.1 387.2,610.8 387.5,611 			"/>
			<path id="XMLID_2789_" class="st1" d="M600.1,583.6c-0.4-0.1-0.8-0.2-1.2-0.3c0.2,0.4,0.3,0.8,0.5,1.2
				C599.6,584.2,599.8,583.9,600.1,583.6z"/>
			<path id="XMLID_2788_" class="st1" d="M616.3,596.8c-0.2-0.2-0.3-0.4-0.5-0.6c0,0.1,0,0.3,0.1,0.4
				C616.1,596.6,616.3,596.7,616.3,596.8L616.3,596.8z"/>
			<path id="XMLID_2787_" class="st1" d="M355.2,564.7c0.2,0.2,0.4,0.3,0.5,0.5c0-0.1-0.1-0.3-0.1-0.3
				C355.5,564.8,355.3,564.8,355.2,564.7L355.2,564.7z"/>
			<path id="XMLID_2786_" class="st1" d="M368,595.7c-0.1-0.1-0.1-0.3-0.2-0.4C367.9,595.4,368,595.5,368,595.7L368,595.7z"/>
			<polygon id="XMLID_2785_" class="st1" points="353.1,557.6 352.9,557.4 353.1,557.6 			"/>
			<polygon id="XMLID_2784_" class="st1" points="355.8,455.3 355.9,454.8 355.5,454.9 			"/>
			<polygon id="XMLID_2783_" class="st1" points="440.5,427.3 440.2,427 440.1,427.3 			"/>
			<path id="XMLID_2782_" class="st1" d="M475.1,344.8c0.1,0,0.3,0.1,0.3,0c0.1-0.1,0.1-0.2,0.1-0.4c-0.1,0-0.3-0.1-0.3,0
				C475.1,344.5,475.1,344.7,475.1,344.8z"/>
			<path id="XMLID_2781_" class="st1" d="M519.4,237.6L519.4,237.6L519.4,237.6z"/>
			<path id="XMLID_2780_" class="st1" d="M520.7,301.7L520.7,301.7C520.7,301.8,520.7,301.7,520.7,301.7z"/>
			<polygon id="XMLID_2779_" class="st1" points="633.9,562.5 633.9,562.2 633.6,562.3 			"/>
			<path id="XMLID_2778_" class="st1" d="M630.1,642.5c0.7,0.2,0.8,0,0.5-0.6C630.5,642.1,630.3,642.3,630.1,642.5z"/>
			<path id="XMLID_2777_" class="st1" d="M652.3,599.4L652.3,599.4L652.3,599.4z"/>
			<path id="XMLID_2776_" class="st1" d="M699.2,751.2L699.2,751.2L699.2,751.2z"/>
			<path id="XMLID_2775_" class="st1" d="M675,643.9c-0.2-4.2-0.1-7.6-1.5-11.2C671.4,636.5,671.8,639.3,675,643.9z"/>
			<path id="XMLID_2774_" class="st1" d="M341.5,453.1c-0.3,1.7-1.5,3.3-0.4,5.7C342.7,456.6,342.4,454.9,341.5,453.1z"/>
			<path id="XMLID_2773_" class="st1" d="M341.3,490.7c0.4-2.9,1.3-5,0.2-7.3C337.9,485.7,337.9,485.7,341.3,490.7z"/>
			<path id="XMLID_2772_" class="st1" d="M341.4,479.7c0.1,0.1,0.2,0.2,0.3,0.4c0.2-0.2,0.4-0.3,0.6-0.5c0,0-0.2-0.2-0.3-0.4
				C341.8,479.3,341.6,479.5,341.4,479.7z"/>
			<path id="XMLID_2771_" class="st1" d="M495.7,500.2c0,0.5,0,0.9,0.1,1.4c-0.1,0-0.3-0.1-0.4-0.1
				C495.5,501.1,495.6,500.7,495.7,500.2C495.8,500.3,495.7,500.2,495.7,500.2z"/>
			<path id="XMLID_2770_" class="st1" d="M403.5,437.3c0.2,1.7,0.4,3.5,0.7,5.2C404.4,440.7,406.9,438.6,403.5,437.3z"/>
			<path id="XMLID_2769_" class="st1" d="M381.6,594c1.5-2.6,2.7-4.2,1.6-6.3c-0.4-0.6-1.3-0.7-1.8-0.1
				C379.7,589.4,381,591.1,381.6,594z"/>
			<path id="XMLID_2768_" class="st1" d="M389.4,585.4c2.1-2,1.7-3.4,1.1-5.1C388.9,581.6,388.6,583,389.4,585.4z"/>
			<path id="XMLID_2767_" class="st1" d="M392.7,566.4c-0.8,1.6-1.3,3-0.5,3.4c1.2,0.6,1.1-0.7,1.1-1.4
				C393.4,567.9,393.1,567.5,392.7,566.4z"/>
			<path id="XMLID_2766_" class="st1" d="M378.1,574.4c-0.3-0.3-0.6-0.7-0.9-1c-0.1,0.2-0.3,0.4-0.4,0.6
				C377.2,574,377.7,574.2,378.1,574.4L378.1,574.4z"/>
			<path id="XMLID_2765_" class="st1" d="M391.5,573.7c-0.1,0.2-0.2,0.4-0.2,0.5c0,0.1,0.2,0.2,0.3,0.2
				C391.6,574.2,391.6,574,391.5,573.7z"/>
			<path id="XMLID_2764_" class="st1" d="M375.3,601c0.1-0.1,0.2-0.3,0.3-0.4C375.5,600.8,375.4,600.9,375.3,601L375.3,601z"/>
			<path id="XMLID_2763_" class="st1" d="M491.8,349c-1.6,1-1.7,2.2-1.7,3.5c1.1,0.7,1.5,0,1.8-0.5C492.5,351.1,493,350.2,491.8,349
				z"/>
			<path id="XMLID_2762_" class="st1" d="M494.9,342c-1.2,0.4-1.7,1.3-1.8,2.4l0,0C494.2,343.9,494.7,343.1,494.9,342L494.9,342z"/>
			<path id="XMLID_2761_" class="st1" d="M493.1,344.3c-0.1,0.2-0.2,0.5-0.3,0.7C492.9,344.8,493,344.6,493.1,344.3L493.1,344.3z"/>
			<path id="XMLID_2760_" class="st1" d="M495,342c0.1-0.2,0.1-0.5,0.2-0.7C495.1,341.5,495,341.7,495,342L495,342z"/>
			<path id="XMLID_2759_" class="st1" d="M420.8,367.5L420.8,367.5L420.8,367.5z"/>
			<path id="XMLID_2758_" class="st1" d="M625.8,549.8c-0.3,0.3-0.7,0.6-0.1,0.9c0.1,0,0.4-0.3,0.6-0.5
				C626.1,550.1,625.9,550,625.8,549.8z"/>
			<path id="XMLID_2757_" class="st1" d="M676.3,733.2c-0.1,0.1-0.3,0.1-0.4,0.2C676,733.3,676.1,733.2,676.3,733.2L676.3,733.2z"/>
			<path id="XMLID_2756_" class="st1" d="M674.8,730.2c-0.2,0.1-0.3,0.1-0.5,0.2C674.4,730.3,674.6,730.3,674.8,730.2L674.8,730.2z"
				/>
			<path id="XMLID_2755_" class="st1" d="M581.5,641.3L581.5,641.3L581.5,641.3z"/>
			<path id="XMLID_2754_" class="st1" d="M648.7,616.9c-0.1,0.1-0.1,0.3-0.2,0.4c0.2,0.1,0.4,0.1,0.6,0.2c0-0.1,0-0.3-0.1-0.4
				C649,616.9,648.9,616.9,648.7,616.9z"/>
			<path id="XMLID_2753_" class="st1" d="M651.9,619.5L651.9,619.5L651.9,619.5z"/>
			<polygon id="XMLID_2752_" class="st1" points="643.1,625 643.2,624.6 642.8,624.8 			"/>
			<path id="XMLID_2751_" class="st1" d="M494,414c0.1,0.9,0.6,1,1.3,0.8c0.4-0.7,0.9-1.4,1.3-2.1C495.8,413.2,494.9,413.6,494,414z
				"/>
			<path id="XMLID_2750_" class="st1" d="M490.4,411.5c0.7,0.1,1.4,0.2,2.1,0.3c-0.1-0.8,0.1-1.8-1.1-1.7
				C490.6,410.2,490.3,410.7,490.4,411.5z"/>
		</g>
		<polygon id="XMLID_2748_" class="st1" points="337.6,535.7 353.3,517.8 364.4,493.8 368.8,468.2 365.4,435.3 339.3,424.7 
			320.1,423.1 304.8,443.6 275.3,486.8 		"/>
		<g id="XMLID_2740_">
			<path id="XMLID_2747_" class="st2" d="M501.3,472.6c-2.1,0-3.3,0.8-4.2,1.6c-0.9,0.9-1.9,1.7-2.9,2.5c-3.2,2.6-6.1,5.9-5.6,9.9
				c4.3,31.2-4.4,63-5.3,65.8c-1.4,4.7,1,9.4-5.8,13.5c-5,3-7.8,9.3-11,14.4c-4.1,6.5-6.1,14.3-16.4,15.7c-0.2,0-0.5,0-0.6,0.1
				c-2.6,4-7.1,7.9-7.4,11.9c-0.4,6.7,0.4,13.2-4.3,19.4c-1.2,1.6,0.1,4.6,0.2,7.4c-3.9,4.9-8.4,10.4-13,16.2c1.3,0.3,1.7,0.5,2,0.4
				c6-2,10.7-1.6,17,0.9c26.2,10.3,53.1,19.3,79.9,28.4c19.1,6.4,34,18.1,50.5,27.9c14.1,8.4,28.7,16.1,43.8,23.5
				c-2.2-2.8-4.5-5.5-6.5-8.5c-9.1-13.1-17.9-26.3-27.1-39.4c-3.4-4.8-8.4-8.7-11.1-13.7c-7.3-13.4-7.5-27.6-0.6-41.7
				c10.8-21.9,27.1-44.9,31.5-68.2c3.1-16.1,2.4-32,5.5-47.3c0.3-1.7,0.4-3.5,0.9-5.2c1.5-4.6,4.1-11.8-2.3-11.4
				c-8.1-1-21.8,6.7-29.9,6.1c-6.7-0.5-18.9-1.7-25.6-1.9c-17.3-0.5-19.6-13.1-29.2-23.6c-0.4-0.5-1-0.9-1.5-1.4
				c-3-2.3-6.8-3.4-10.8-3.5C508.4,472.7,504.4,472.7,501.3,472.6z"/>
			<path id="XMLID_2743_" class="st2" d="M669.3,424.7c-0.6,2.4-0.7,3.3-0.4,5.8c0.3,2.1,0,3.8,1.2,5.4c4.6,6.4,4.5,14.7,4.3,22.2
				c-0.2,8.9-9,15.3-14.7,17.3c-10.1,5.7-23.3,9.8-35,11.7c-16.9,2.7-32.4,4.9-50.3,5.3c-11.6,1.7-30.8,1.9-39.1-8.2
				c-4.2-5.2-8.7-10.1-12.9-15.3c-1.9-2.4-3.3-5.3-5-7.9c-0.9-1.4,4.2-5.2,3.2-6.5c-2.1,0.7-3.4,1.4-4.4,2.9
				c-2.1,3.2-9.5,3-13.3,2.1c-7.2-1.7-6.6-1.1-13.6-3.4c-3-1-6.2-3.7-7.8-6.5c-5.3-9.5-3.6-16-4.3-28.3c0,0-2.3-7.1,6.8-12.2
				c0,0,27.7-12.2,38.2-43.7c1.1-6.3,23.5-65.7,19-79.3c-0.8-2.3-4.5-13-4-17.3c3.7-17.9,11-29.8,11-29.8c8.4-7.1,5.7-12.6,30.8,7.4
				c9.9,7.9,16.9,15,24.1,25.4c3.3,4.8,7.8,16.6,10.2,21.2c-5,0.5-13.6,1.8-17.6,2.6c-1.3,0.3-2.9,2.4-3,3.7c0,1.7,0.9,4.3,2.2,5
				c7,3.4,16.8,0.6,20.5-7c1.6,4.1,1.6,7.3,3.3,10.7c1.8,3.7-1.6,11,2.1,12.4c33.7,12.8,37.1,15.9,42.9,18.7
				c5.5,3,11.3,12.7,10.6,21c-0.6,7.5-4.8,8.6-9.4,13.2c-5.6,5.6-3.1,7.6,1.6,14c4.1,5.5,2.9,14.6-4.1,17.4c-6,2.3-11.2,6-16.3,10
				c-1.4,1.1-2.7,2.4-4,3.6c0.4,0.6,0.3,0.5,0.7,1.2c4.5-1.4,10.5-7.7,15.4-9.2c0,0,11.9-3,12.6-0.1l1,1.9
				C673,414.6,670.4,420.7,669.3,424.7z M590.1,318.2c-3.6,5-7.3,9.9-10.1,15.2c-1.3,2.4-0.6,5.7-0.8,8.7c2.8-0.1,5.6,0.1,8.4-0.2
				c3.4-0.4,6.7-1.4,10.1-1.5c4.9-0.1,9.4-0.7,13.6-5.4c-1.9,0.3-3,0.5-4.1,0.7c-5,1-9.9,2.1-14.9,2.9c-1.1,0.2-3.3-0.9-3.5-1.6
				c-0.2-1.2,0.6-2.9,1.6-3.8c1.9-1.7,4.2-3,6.7-4.7c1.6,0.8,3.4,1.8,4,2.1c0.9-6.5,1.8-13.1,2.6-19.5
				C596,309.1,593.1,313.9,590.1,318.2z M657.2,369.3c0.3,0.4,0.5,0.8,0.8,1.3c3.1-1.9,6.3-3.9,9.4-5.8c-0.4-0.6-0.7-1.2-1.1-1.7
				C661.1,361.8,659.8,366.5,657.2,369.3z"/>
			<path id="XMLID_2742_" class="st2" d="M641.4,319.7"/>
			<path id="XMLID_2741_" class="st3" d="M667.3,363c-7.4-1.5-9.3,5.2-11.9,8c0.3,0.4,2.1,4.6,2.3,5.1c1.7-2.1,7.5-9.4,10.7-11.3
				C668.1,364.2,667.7,363.6,667.3,363z"/>
		</g>
		<polygon id="XMLID_2739_" class="st3" points="508.1,183.3 460.3,152.1 435.4,166.1 379.2,236 359.3,274.1 348.8,305.2 
			350.2,309.5 375.5,310.2 		"/>
		<g id="XMLID_2697_">
			<path id="XMLID_2698_" class="st2" d="M325.7,511.3c-0.1,7.1-0.2,14-0.3,20.8c0.2,0,0.4,0,0.5,0.1c3.6-13.7,7.2-27.4,10.9-41.3
				c-1.8,0.2-3.6,0.4-5.4,0.7c-0.5,0.1-1,0.7-1.2,1.2c-2.5,6.2-4.9,12.4-7.3,18.6c-0.1,0.3,0,0.8,0,1.2c-0.3,0.4-0.8,0.8-1,1.3
				c-4.1,9.5-8.4,18.8-14.7,27c-7.6,9.8-15.5,19.1-25.6,26.2c-1.4,1-2.1,0.7-3.2-0.4c-5.4-5.9-9.5-12.7-12.6-20.1
				c-3-7-4.9-14.3-5.6-22c-0.1-1.1,0.3-2.4,0.9-3.3c2.3-3.9,4.8-7.7,7.1-11.7c0.8-1.3,1.6-2.1,3-2.2c5-0.5,10-0.9,15-1.3
				c1-0.1,1.4,0.2,1.2,1.4c-0.9,4.9-1.9,9.7-2.6,14.6c-0.5,3.1-0.7,6.3-1,9.5c0.2,0,0.3,0.1,0.5,0.1c4.3-11.6,8.6-23.2,13-35.2
				c-7.2-0.7-14.2-1.3-21.3-1.9c-0.5,0-1.1,0.5-1.5,1c-2.2,2.9-4.3,5.9-6.6,8.8c-6.1,7.8-12.5,15.3-20.4,21.3
				c-4.4,3.3-9.1,6.3-13.7,9.4c-6.1,4.2-11.6,9-16.6,14.7c-0.3-0.3-0.6-0.5-0.7-0.8c-1.6-4-3.6-7.9-4.8-12.1
				c-3.4-11.8-4.6-23.9-4.2-36.2c0-1.2,0.3-2.1,1.5-2.8c2.2-1.3,4.3-2.8,6.4-4.2c1.2-0.8,2.3-2.3,3.6-2.5c5.5-0.9,11-1.5,16.7-2.2
				c-2.2,6.9-4.2,13.5-6.3,20.1c0.2,0,0.3,0.1,0.5,0.1c6.6-10.7,13.1-21.5,19.9-32.6c-5-0.5-9.6-0.9-14.2-1.4
				c2.7-3.9,5.6-7.7,8.1-11.7c1-1.5,2-1.9,3.5-1.7c3.2,0.4,6.4,0.6,9.6,1.4c1.6,0.4,2.1-0.2,2.9-1.3c13.8-20.3,28.2-40.2,43.4-59.5
				c1.1-1.4,1-2.3-0.3-3.4c-0.4,0.5-0.9,0.9-1.3,1.4c-3,3.1-5.8,6.3-8.9,9.2c-5.5,5.1-11.3,9.7-16.6,15.1
				c-8.1,8.2-15.9,16.6-23.6,25.1c-9.3,10.3-18.1,21-28.6,30.1c-5.2,4.5-10.7,8.5-16.9,11.1c-6.9,2.9-13.9,5.4-21,7.8
				c-9.6,3.3-19.3,6.3-29,9.4c-0.8,0.2-1.6,0.3-2.4,0.4c-2.1-12.4-1.4-25.3,0.9-36.8c1.8-8.8,4.6-17.3,8.3-25.5
				c0.4-0.8,1.3-1.7,2.1-2c3.6-1.6,7.4-2.8,11-4.4c2.3-1,4.5-1.1,6.9-0.3c6.3,2,12.6,3.7,18.9,5.8c1.3,0.4,2,0.1,2.8-0.8
				c2.8-3.2,5.7-6.3,8.6-9.5c1.3-1.5,2.6-3,4-4.7c-4.4-1.6-8.4-3.1-12.5-4.6c5.3-3.9,10.5-7.7,15.8-11.4c0.4-0.3,1.2-0.2,1.8,0
				c2.5,0.9,5,1.8,6.9,2.5c19.2-18.4,38.1-36.6,57-54.9c-0.3,0.4-0.8,0.6-1.2,0.9c-4.6,4-9.2,8-13.7,12
				c-10.4,9.3-20.8,18.5-32.6,25.8c-9.9,6.1-19.8,12.2-30,17.8c-13.1,7.1-26.4,13.7-40.4,18.8c-8.3,3-16.8,5.6-25.3,8.3
				c-1.9,0.6-3.9,0.8-5.8,1.2c-0.1-0.4-0.2-0.6-0.2-0.8c-0.4-10.7,0.5-21.2,2.5-31.7c0.1-0.6,0.9-1.2,1.6-1.4
				c6.2-2.3,12.6-4.1,18.6-6.7c12.4-5.5,23.9-12.9,34.9-20.8c1-0.7,2.1-1.4,3.2-2.1c0,0.1,0.1,0.2,0.1,0.3
				c-7.6,8.9-15.2,17.7-22.9,26.6c0.2,0.2,0.3,0.4,0.5,0.5c18.5-14.3,37-28.7,55.6-43.1c-2.7-1.2-5.2-2.3-7.8-3.5
				c0.6-0.4,0.9-0.7,1.3-1c2.7-1.7,5.5-3.4,8.3-5.2c4.5-3,4.5-3,9.1,0c0.6,0.4,1.8,0.4,2.4,0c7-5,13.9-10.2,20.9-15.2
				c8-5.7,16-11.4,24.1-17c3.5-2.5,7-5,10.6-7.4c-1.6,0.4-2.9,1.1-4.3,1.8c-9.9,5.1-19.7,10.2-29.5,15.4
				c-7.2,3.8-14.5,7.7-21.5,11.8c-8.7,5.1-17.5,10.3-25.9,15.9c-12.2,8.2-24,17.1-36.2,25.3c-4.9,3.3-10.1,6.3-15.5,8.5
				c-8.8,3.6-18.2,4.9-27.7,5.5c-4.9,0.3-9.9,0.3-14.9,0.3c-2.4,0-4.7-0.3-7.3-0.4c0.2-1.3,0.4-2.3,0.5-3.3c1-6,1.7-12.1,3.2-17.9
				c3-11.6,8.1-22.3,14.3-32.4c0.3-0.5,0.9-1.2,1.4-1.3c4.1-0.3,8.3-1.1,12.4-0.5c8.4,1.2,16.7,3.3,24.6,6.7c0.6,0.2,1.4,0.3,1.9,0
				c5.7-3.8,11.4-7.6,17.5-11.7c-3-1.5-5.8-2.9-8.6-4.3c0.2-0.3,0.2-0.4,0.3-0.5c4.8-2.5,9.5-5.1,14.3-7.5c0.6-0.3,1.5-0.2,2.1,0.1
				c1.8,0.9,3.5,2,5.3,2.9c0.5,0.2,1.2,0.2,1.7,0c1.9-1,3.7-2.2,5.6-3.2c7.8-4.4,15.6-8.9,23.5-13.1c9.4-4.9,19-9.6,28.6-14.2
				c5.3-2.6,10.7-4.9,16.1-7.3c5.5-2.4,11.1-4.8,16.6-7.2c-0.7-0.1-1.5-0.1-2.1,0.1c-8.2,2.3-16.5,4.5-24.7,7.1
				c-11.4,3.7-22.8,7.4-34,11.8c-9.5,3.8-18.7,8.7-28,13.2c-11.1,5.4-22,11.1-33.2,16.3c-7.7,3.6-15.8,5.8-24.2,5.9
				c-10,0.1-20-0.1-30.1-0.3c-5.3-0.1-10.7-0.5-16.2-0.8c1.5-14.3,6.8-26.8,13.9-38.5c7-11.7,15.7-21.9,25.8-31.2
				c-0.9-0.3-1.3-0.4-1.7-0.5c-6.7-2.1-13.3-4.2-20-6.3c-5.4-1.7-10.5-4.6-16.3-4.7c-0.9,0-1.7-0.2-2.7-0.4c0.1-0.4,0.1-0.6,0.2-0.8
				c5.9-7.6,11.8-15.2,17.6-22.9c1.5-2,3.3-2.5,5.6-2.3c7.5,0.6,14.9,1.2,22.4,1.8c1.8,0.2,3.7,0.4,5.5,0.7
				c-6.5-5.2-13.6-9.1-21.9-11.8c5.2-3.6,9.9-6.9,14.6-10.2c1.5-1,2.9-1.6,4.8-1c4.5,1.3,9,2.3,13.5,3.5c2.5,0.7,5.2,1.1,7.5,2.3
				c6.8,3.6,13,8.1,18.8,13.2c0.5,0.4,1.3,0.7,1.9,0.6c8.1-1.9,16.3-3.9,24.4-5.9c0.1,0,0.1-0.2,0.3-0.6c-3.7-2.9-7.4-5.8-11.2-8.7
				c6.6-1.7,13-3.4,19.4-5.2c1.3-0.4,2.2-0.1,3.1,0.8c2.8,2.7,5.5,5.4,8.4,8.1c0.6,0.6,1.7,1.2,2.5,1c12-1.8,24.1-3.7,36.1-5.6
				c0.6-0.1,1.2-0.2,1.7-0.3c0-0.2,0.1-0.4,0.1-0.6c-6.3-3.3-12.5-6.6-18.8-10c1-0.1,1.9,0,2.7,0.3c8.4,2.7,16.8,5.4,25.1,8.1
				c1.1,0.3,2.3,0.8,3.3,0.7c23-2.5,46-4.2,69.1-4.7c1.8,0,3.6,0,5.4-0.1c-2.7-0.7-5.3-0.9-8-1c-8.3-0.4-16.5-0.8-24.8-1.3
				c-6-0.3-12-0.8-18-1.2c-8.9-0.7-17.9-1.3-26.8-2.1c-4.2-0.4-8.4-1-12.6-1.6c-5.5-0.7-10.9-1.4-16.4-2.3
				c-3.6-0.6-7.2-1.8-10.6,0.7c-0.2,0.1-0.4,0.1-0.5,0.2c-12.1,5.4-24.6,9-37.6,10.8c-9.3,1.3-18.7,1.6-28.1,0.6
				c-5.6-0.6-11.1-1.6-16.6-2.8c-4.4-1-8.7-2.5-13.6-4c5-3.5,9.3-6.9,12.6-11.5c-0.6,0-1.1,0.2-1.5,0.4c-6.4,2.5-12.8,4.8-19.5,5.8
				c-0.9,0.1-2.1,0-2.9-0.6c-2.6-1.8-5.2-3.7-7.6-5.8c-3-2.8-5.1-6.2-6.8-10.1c3.7-1.3,7.2-2.4,10.6-3.9c6.5-2.9,13-5.9,19.3-9.3
				c8.3-4.6,16.5-9.6,24.5-14.8c4.9-3.2,9.3-7.2,14.9-9.3c1.9-0.7,4.1-1.9,5.9-1.5c2.9,0.7,5.5,2.6,8.6,4.2
				c-5.3,1.8-10.2,3.6-15.2,5.3c7,5.8,13.4,11.5,19.1,18.9c-5.5,2.3-10.7,4.7-16,6.7c-5.3,1.9-10.8,3.3-16.5,5
				c10-0.7,19.6-2.8,29.2-5.2c9.6-2.4,19.2-4.6,29.4-7.1c-3.7-5.5-7.2-10.7-10.7-16c0.3,0,0.5-0.1,0.6-0.1c3.6,0.8,7.2,1.6,10.8,2.4
				c1.8,0.4,3.8,0.5,5,2.5c1.7,2.8,3.8,5.4,5.7,8.1c0.6,0.9,1.2,1.3,2.5,1.3c16.5-1.1,32.9-2.3,49.4-3c7.4-0.3,14.8,0.4,22.3,0.7
				c2.1,0.1,4.2,0.3,6.3,0.5c0-0.2,0.1-0.5,0.1-0.7c-2.3-0.9-4.4-2.2-6.8-2.6c-9.9-1.9-19.9-3.7-29.9-5.2c-10.5-1.6-21-2.8-31.5-4
				c-6-0.7-12-0.8-17.9-1.5c-8.8-1-17.3-3.4-25.6-6.6c-10.5-4.1-20.2-9.9-29.8-16c-4-2.6-8-5.2-12.7-6c-2.4-0.4-4.7-0.9-7.7-1.4
				c2.9-1.6,5.3-2.9,7.7-4.3c7.6-4.4,15.2-8.8,22.9-13c1.3-0.7,2.9-1,4.4-1.1c2.4-0.1,4.9,0.1,7.4,0.3c11,1,21.9,2.4,32.4,6.3
				c0.2,0.1,0.4-0.1,0.6-0.1c0.1-0.2,0.2-0.4,0.4-0.7c-1.2-0.8-2.5-1.7-3.7-2.5c-6-4-12.8-5.4-19.5-7.4c-2.7-0.8-5.3-1.6-8.5-2.6
				c2.4-1.4,4.2-2.5,6-3.7c9.3-6.2,19.7-8.4,30.5-8c10.9,0.5,21.5,2.5,32.1,4.9c8.5,2,17,3.9,25.4,6.1c9.5,2.5,19,5.2,28.5,8.1
				c2.8,0.8,4.9,1.1,7-1.4c1.6-2,3.7-3.6,5.8-5.7c-18.9-6.9-37.7-12.1-57-15.9c9.7,4.3,19.3,8.5,29,12.8c-3,3.1-3.8,3.3-7,1.9
				c-1.1-0.4-2.2-0.9-3.3-1.2c-14.5-5.1-29.1-10.1-44.1-13.4c-8.5-1.9-16.9-3.4-25.6-3.9c-1.5-0.1-2.8-0.5-3.8-2
				c-1.5-2.4-3.3-4.5-4.7-6.9c-1.6-3-2.9-6.2-4.4-9.5c1.1-0.1,1.6-0.2,2.1-0.2c8.1-0.2,15.9-2.4,23.7-4.3c1.7-0.4,3.4-1.2,5.1-1
				c3.8,0.3,7.6,0.5,11.3,1.6c6.2,1.8,12.2,4.2,18.3,6.2c2.7,0.9,5.5,1.6,8.2,2.4c0.1-0.2,0.2-0.5,0.2-0.7
				c-8-3.2-15.1-7.8-21.4-14.2c4.6-0.6,9.2-1.4,13.7-1c8.3,0.7,16.7,1.8,25,3.1c7.3,1.1,14.5,2.4,21.6,4.2c7.7,2,15.1,4.7,22.7,7.1
				c6.1,1.9,11.5,4.8,15.6,10c1.6,2,3.5,3.8,5.3,5.7c0.1-0.1,0.3-0.1,0.4-0.2c-0.2-2.1-0.5-4.1-0.7-6.4c0.6,0.3,1,0.4,1.3,0.5
				c11.2,5.5,21.9,11.8,32.3,18.8c12.3,8.4,24.2,17.3,34.5,28.4c5.2,5.6,9.4,11.9,11.3,19.6c0.6,2.5,1.3,4.9,1.8,7
				c1.5,0.3,2.8,0.3,3.8,0.9c13.3,7.6,25.9,16.1,37.6,26.1c1,0.8,1.6,0.8,2.7,0.3c3.7-1.8,7.4-3.7,11.3-5.2c2.7-1.1,5.4-0.4,7.1,2.1
				c3.9,6,8,11.9,11.4,18.1c5.6,10.1,10.8,20.3,16,30.6c1.7,3.3,3,6.8,4.3,10.3c0.7,2,0.5,4.2-1.2,5.7c-1.3,1.1-2.7,2.3-4.2,3.1
				c-4.8,2.8-9.8,5.3-14.6,8.1c-4.5,2.6-9,5.2-13.4,7.9c-15.6,9.8-30.5,20.7-44.7,32.6c-16.6,13.9-32.2,28.9-47.1,44.7
				c-6.3,6.7-12.5,13.7-18.7,20.6c-0.5,0.6-33,42.5-45.8,52c-5.4,4-0.4,30,1.1,34.1c3.1,8.3,4.1,17.2,3.7,26
				c-0.4,10-2.9,19.5-6.8,28.6c-7.3,17.3-16.5,33.6-28,48.3c-5.2,6.6-10.3,13.4-18.5,16.9c-1.7-3.2-3.5-6.3-5.2-9.5
				c-0.8-1.5-1.5-3-2.1-4.5c-0.2-0.6-0.2-1.6,0-2.2c2.9-7.7,6-15.4,8.8-23.1c1-2.7,1.3-5.7,1.9-8.6
				C323.7,512.1,324.6,511.7,325.7,511.3z M245.3,254.8c4.3-0.9,8.6-1.9,13-2.6c3.8-0.6,7.2-1.9,10.3-4.5c5.5-4.6,11.4-8.7,17-13.2
				c1.3-1,2.3-2.4,3.6-3.8c-0.1,5.6-2,10.7-4,16.2c4.1-0.9,7.8-1.6,11.6-2.4c6.2-1.3,12.3-2.5,18.5-3.8c8.2-1.7,16.4-3.4,24.5-5.1
				c6.8-1.5,13.7-2.9,20.5-4.7c8.4-2.3,16.8-4.9,25.2-7.4c1.5-0.4,2.8-1.3,4.7-2.2c-0.8-0.2-1.2-0.5-1.6-0.5
				c-10.9-0.3-21.8-0.8-32.7-0.8c-14.4,0-28.8,0.4-43.3,0.8c-22.5,0.7-44.9,3.3-67.3,6.5c-1.8,0.3-2.6,0.8-3,2.8
				c-1.6,8.8-3.4,17.5-5.3,26.6C239.8,256,242.5,255.4,245.3,254.8z M367.5,186.5c-6-2.1-12-4.2-18.1-5.5c-9.1-2-18.4-3.6-27.6-4.7
				c-8.1-1-16.2-1.4-24.3-1.7c-6.8-0.2-13.6,0.1-20.4,0.4c-5.6,0.3-11.1,0.9-16.6,1.3c-3.2,0.3-3,0.4-4,3.5
				c-1.4,4.2-3.1,8.3-4.9,13.2c1.6-1.1,2.9-1.8,4-2.7c4.8-3.9,9.5-7.9,15.3-9.9c2.1-0.7,4.5-1,6.8-1.2c-5.6,4.2-11.6,7.7-16.1,14
				c7.1,0.9,13.7,1.9,20.2,2.6c11.1,1.1,22.2,2.1,33.3,3.1c2.2,0.2,4.4,0.2,6.6,0.5c3.4,0.3,6.1-1.3,9-2.7c4.8-2.4,9.5-4.8,14.2-7.2
				c0.3-0.1,0.6-0.2,1-0.1c-3.8,3.2-7.8,6.2-10.9,10.7c4.9,0.3,9.4,0.6,14,0.9c6.1,0.4,12.1,0.4,18.2,1.1c6.9,0.7,13.8,1.8,20.7,2.8
				c1.3,0.2,2.5,0.5,3.7,1c1.2,0.6,2.1,0.3,2.8-0.8c1.1-1.5,2.1-3,3.4-4.7C387.6,195.1,377.9,190.1,367.5,186.5z M310,156.8
				c5.2,0.8,10.3,1.6,15.5,2.3c0.9,0.1,2,0.1,2.9-0.1c5-1.5,9.9-3,14.9-4.6c8.3-2.6,16.6-4.7,25.3-4.6c0.4,0,0.8,0.2,1.3,0.6
				c-10.4,1.1-19.5,5.8-28.3,11.5c1.7,0.3,3.3,0.7,5,1c12.1,2.8,24.3,5.3,36.4,8.5c10.4,2.7,20.7,5.8,30.5,10.7
				c3.8,1.9,3.9,1.9,5.1-2.4c0.9-3.1,1.3-6.3,0.6-9.6c-0.2-0.7-0.7-1.6-1.4-1.9c-17.1-7.6-34.1-15.2-51.3-22.5
				c-13.1-5.5-26.7-9.6-40.6-12.9c-3.9-0.9-7.8-1.9-11.6-3c-0.8-0.2-1.4-0.5-1.7,0.8c-1.9,8.4-4.8,16.4-8.4,24.2
				c-0.1,0.2-0.2,0.5-0.4,0.9C305.8,156.1,307.9,156.5,310,156.8z M392.5,101.2c-0.1,0.1-0.3,0.2-0.4,0.2c-0.5-0.9-1.1-1.7-1.6-2.6
				c-4.5-8-11-14-17.5-19.9c-0.1-0.1-0.2-0.2-0.3-0.2c-5.5-6.4-13.1-8.8-20.5-11.4c-0.5-0.2-1-0.3-1.5-0.5c-0.4-0.1-0.8-0.3-1.8-0.6
				c1.3,3,2.5,5.7,3.7,8.3c3.3,7.4,6.9,14.6,9,22.5c0.2,0.6,1.1,1.2,1.8,1.5c5.3,2.3,10.7,4.5,16.1,6.8c11.4,5,22.7,10.5,33.2,17.3
				c9.5,6.1,18.7,12.6,28.1,18.8c0.9,0.6,2.2,0.7,3.3,0.5c5.6-1,5.7-1.7,4.9-7.6c-0.8-6.1-5.1-9.3-8.9-12.8
				c-14.6-13.6-30.9-24.6-48-34.4c-0.6-0.3-1.2-0.6-2-0.9C390.7,91.4,391.6,96.3,392.5,101.2z M345.8,282.7c-8,2.6-16.1,5-24,7.8
				c-10.8,3.8-21.6,7.6-32.3,11.9c-13.7,5.5-27.3,11.2-40.7,17.2c-11.5,5.2-22.6,11-33.9,16.6c-0.5,0.2-1,1.3-0.9,1.8
				c1.1,5.8,2.3,11.6,3.4,17.6c1.8-1.1,3.8-2.4,5.8-3.6c9.8-5.7,19.5-11.5,29.4-17c10.5-5.8,21-11.4,31.6-16.9
				c9.9-5.2,19.9-10.1,29.9-15.1c7.1-3.6,14.3-7.2,21.4-10.7c6.1-3,12.1-5.9,18.2-8.8c1.6-0.8,1.7-2.1,2.1-4
				C352.3,280.7,349.1,281.7,345.8,282.7z M260.2,430.9c7.7-7.7,15.8-14.9,23.6-22.5c5.2-5,10.1-10.3,15.1-15.5
				c0.4-0.4,0.8-1.4,0.6-1.9c-2.4-5.8-3.7-11.9-4.2-18.5c-1.1,0.8-2,1.4-2.8,2c-7.2,6.1-14.5,12-21.5,18.2
				c-10.9,9.5-21.6,19.2-32.3,28.8c-0.8,0.7-1.5,1.4-0.9,2.9c3,7.1,5.8,14.3,8.8,21.6C251,441,255.3,435.7,260.2,430.9z
				 M231.6,301.7c2.8-1.1,5.6-2.3,8.5-3.4c9-3.2,17.9-6.7,27-9.4c13.5-4,27.2-7.8,40.9-11.2c13.1-3.3,26.4-5.9,39.7-8.7
				c3.6-0.8,7.3-1.3,10.9-2c1.8-0.3,3.1-2.7,2.8-5.9c-45.3,4-90.2,10.3-133.8,23.5C228.9,290.3,230.2,295.9,231.6,301.7z
				 M309.8,115.3c0.9,1.8,1.5,3.7,2.5,5.5c0.3,0.6,1,1.2,1.7,1.3c10.2,2.3,20.5,4.3,30.6,6.9c7.7,2,15.3,4.8,22.9,7.2
				c0.2,0,0.4,0,0.8-0.1c-3.6-3.6-7-7.1-10.4-10.6c0.1-0.1,0.1-0.2,0.2-0.3c2.5,1.5,5,2.8,7.4,4.4c5,3.3,9.8,6.9,14.8,10.1
				c3,1.9,6.3,3.3,9.5,4.8c7.1,3.1,14.3,6,21.4,9.1c8,3.5,15.9,7.1,24.1,10.3c-1.6-1.5-3.1-3.1-4.8-4.4
				c-7.4-5.2-14.7-10.5-22.3-15.2c-11.9-7.3-24.6-13.2-37.6-18.1c-8.7-3.4-17.5-6.7-26.4-9.6c-9.1-3-18.4-5.5-27.6-8.2
				c-3.8-1.1-7.7-2.3-11.5-3.4c-0.3-0.1-0.6-0.1-1-0.2C306.1,108.3,308,111.8,309.8,115.3z M268.7,152.1c5.3,0.5,10.7,1,16,1.4
				c1.1,0.1,2.2,0.4,3.3,0.3c0.7-0.1,1.5-0.8,1.8-1.5c2.4-5.1,4.7-10.3,6.8-15.5c1.1-2.6,1.7-5.3,2.5-8c0.4-1.3,0.5-2.1-1.4-2.4
				c-7.5-0.9-14.9-2.3-22.4-2.9c-8.4-0.7-16.9-0.7-25.4-0.8c-6.4-0.1-12.8,0-19.2,0.2c-2.2,0.1-4.5,0.5-6.7,1.2
				c14.6,2.2,29.2,4.4,43.8,6.6c0.1,0.2,0.2,0.5,0.4,0.7c-5.3,6.3-10.7,12.7-16.4,19.4C257.5,151.2,263.1,151.7,268.7,152.1z
				 M220,277.3c0.4,0.3,1.1,0.3,1.6,0.1c5.3-1.6,10.6-3.4,16-4.9c6.4-1.8,12.8-3.5,19.2-5.1c5.9-1.5,11.8-2.9,17.8-4.2
				c6.1-1.3,12.1-2.7,18.3-3.8c19.1-3.3,38.2-6.4,57.5-8.3c4.3-0.4,8.6-0.8,13-1.1c1.5-0.1,2.3-0.7,2.3-2.6
				c-2.4-0.4-4.7-0.9-7.1-1.1c-6.9-0.7-13.7-1.6-20.6-2c-2.8-0.2-5.7,0.2-8.5,0.8c-13.7,2.8-27.4,5.7-41.1,8.5
				c-9.3,1.9-18.7,3.6-28,5.5c-11.2,2.3-22.4,4.7-33.6,7.2c-5.2,1.2-10.4,2.6-16,3.9C214,272.8,217,275.1,220,277.3z M266.3,466.8
				c3.3,4.8,6.5,9.3,9.8,14.1c1.2-1.7,2.4-3.5,3.6-5.3c10.2-16.2,20.4-32.4,30.4-48.6c2.1-3.3,3.7-6.9,5.6-10.3
				c0.6-1,0.4-1.5-0.3-2.2c-1.7-1.5-3.3-3.2-5-4.9C294.9,428.4,280,447.4,266.3,466.8z M160,246.9c0,0.3,0.1,0.5,0.1,0.8
				c11,0.4,21.9-0.7,32.9-2.3c0.2,0.2,0.4,0.3,0.5,0.5c-3.5,7.3-6.9,14.6-10.5,21.9c0.2,0,0.4,0.2,0.7,0.2c6.5-1.1,13-2.2,19.5-3.4
				c2.9-0.5,5.7-1.4,8.5-1.9c1.8-0.3,2.8-1.2,3.3-2.9c2.5-9,5-18,7.4-27.1c0-0.2-0.1-0.4-0.2-1.1C201.5,236.7,180.7,241.8,160,246.9
				z M331.3,427.1c-4.3,0-8,1.9-11.9,3.3c-4.7,1.7-6.6,6-9,9.9c-9.1,14.4-18.3,28.8-27.5,43.2c-0.2,0.3-0.4,0.7-0.7,1.2
				c6.7,0.6,13.3,1.2,19.8,1.8C311.7,466.8,321.5,447,331.3,427.1z M301.1,331.1c-10.4,6.8-20.8,13.6-31.2,20.4
				c-6.8,4.5-13.5,9.1-20.2,13.6c-0.5,0.3-0.9,1-0.9,1.6c0,6.2,0.2,12.3,0.3,18.8c1.9-1.5,3.9-3,5.8-4.6
				c9.8-8.6,19.6-17.1,29.3-25.7c5.3-4.6,10.6-9.1,15.7-13.9c1.8-1.7,2.9-4.2,4.4-6.2c2.7-3.7,5.4-7.4,8.2-11.2
				C308.6,326.2,304.9,328.6,301.1,331.1z M211.2,458.3c0.8,6.8,1.5,13.4,2.4,20.8c2.2-1.7,4-2.9,5.6-4.4c5.2-5,10.4-10,15.4-15.1
				c0.6-0.6,1-2,0.8-2.8c-1.9-7.6-4.6-14.8-9.3-21c-0.3-0.4-0.6-0.7-1.3-1.5c-12.9,13.2-25.6,26.3-38.4,39.4
				c0.2,0.2,0.4,0.3,0.6,0.5C194.9,468.9,202.9,463.7,211.2,458.3z M189.5,303.9c-1.1,6.9-2.2,13.5-3.3,20.5c3.2-1.6,6.1-3,9.1-4.5
				c5-2.5,9.8-5.3,14.9-7.6c2.6-1.2,2.9-3.4,3.3-5.7c0.9-4.7,1.6-9.5,2.2-14.3c0.2-1.2-0.1-2.5-0.2-4c-20.9,7-41.1,15.1-60.5,25.5
				c0.1,0.2,0.1,0.4,0.2,0.6C166.4,311,177.7,307.5,189.5,303.9z M178.8,369c-0.5,4.7-1,9.6-1.6,14.9c2.3-1.4,4.3-2.6,6.2-3.9
				c4.8-3.3,9.7-6.6,14.5-10c0.6-0.4,1.2-1.3,1.2-2c0-7.2-0.2-14.4-0.3-21.6c0-0.3-0.1-0.5-0.3-1c-18.3,10.7-35.9,22.1-52.3,35.3
				c0.1,0.3,0.3,0.5,0.4,0.8C157.2,377.4,167.9,373.3,178.8,369z M436.6,148.7c-11.6-10.2-24.2-18.6-37.5-26
				c-11.1-6.1-22.6-11.5-33.9-17.2c-3.5-1.8-6.6-2.9-9.2,1.5c-1,1.6-2.7,2.6-4.3,4.2c30.6,10.8,60,23.4,85.5,44.4
				C439,152.9,438.8,150.7,436.6,148.7z M438.5,225.1c-3-2.2-5.7-4.4-8.5-6.4c-5.3-3.9-10.8-7.6-16.1-11.5c-1.2-0.9-2.3-0.8-3.3-0.1
				c-4.7,3.1-8.2,7.4-11,12.4c-0.7,1.3,0.1,1.6,0.8,2.2c6.5,4.9,13,9.8,19.5,14.7c1.1,0.9,2.2,1.9,3.4,2.9
				C428.5,234.4,433.4,229.8,438.5,225.1z M308.8,489c3.8,3.5,7.6,7,11.5,10.6c1.2-3.1,2.5-6.1,3.5-9.1c2.8-8.3,5.7-16.5,8.4-24.8
				c1.8-5.8,3.4-11.7,5-17.5c0.6-2-0.4-7.1-1.7-9.2C325.5,455.1,316.6,471.8,308.8,489z M292.8,107.5c-0.9-1.5-2.2-2.8-3.1-4.4
				c-2.2-3.8-5.8-5.3-9.7-6c-5.6-0.9-11.2-1.9-16.8-2.7c-2.6-0.3-5.2-0.1-8.4-0.2c2.5,2.6,4.7,4.8,6.7,7c4.2,4.6,7.8,9.6,10.6,15.2
				c0.3,0.6,1.2,1.3,1.9,1.3c8,0.7,16.1,1.3,24.1,2c0.2,0,0.4-0.1,1.3-0.3C297.1,115.3,295,111.4,292.8,107.5z M449.6,201.5
				c-7.2-4.2-14.4-8.3-21.7-12.2c-3.4-1.9-4.5-1.7-7,1.4c-1.8,2.2-2.9,4.9-4.5,7.6c3,1.9,5.7,3.5,8.2,5.3
				c6.6,4.8,13.1,9.6,19.6,14.5c0.8,0.6,1.4,0.9,2.2,0.2c4.1-3.4,8.2-6.9,12.6-10.6C455.8,205.5,452.8,203.3,449.6,201.5z
				 M468.2,186.9c-8-5-16-9.9-24-14.8c-0.6-0.4-1.6-0.4-2.2-0.1c-3.9,2.1-7.1,5.2-10.2,8.9c2.9,1.7,5.7,3.3,8.5,4.8
				c8.4,4.7,16.4,10.1,23.9,16.2c1.1,0.9,1.8,0.9,2.8,0c3.5-2.6,7-5.2,11.1-8.1C474.5,191.3,471.5,188.9,468.2,186.9z M480.9,169.7
				c-6.1-3.9-12.3-7.6-18.5-11.2c-0.9-0.5-2.3-0.6-3.2-0.2c-3.1,1.3-5.5,3.7-7.5,6.4c-0.9,1.2-0.1,1.6,0.7,2.1
				c5.8,3.8,11.7,7.5,17.4,11.5c4.6,3.2,9,6.9,13.5,10.3c0.5,0.4,1.6,0.7,2,0.5c4.1-2.5,8.2-5.1,12.6-7.9
				C492,177.2,486.5,173.3,480.9,169.7z M201.7,276.6c-3.6-2.8-7.4-3-11.6-2.2c-11.9,2.2-23.8,1.5-35.5-1.5
				c-1.3-0.3-2.5-0.2-3.5,0.9c-0.8,0.9-1.8,1.6-3,2.7c2.4,0.8,4.5,1.4,6.5,2.2c7.7,2.9,15.5,5.8,23.2,8.8c2.2,0.9,4.3,2,6.6,2.9
				c0.7,0.3,1.7,0.2,2.4,0c4.9-1.9,9.8-3.8,14.7-5.8c2.5-1,5.1-1.9,8.2-3.1C206.7,279.7,204,278.4,201.7,276.6z M328,77.3
				c1.6,2.7,2.7,5.6,4,8.5c0.6,1.3,1,2.2,2.6,2.7c6.2,1.9,12.3,4.1,18.4,6.2c0.2,0.1,0.4,0,0.9,0c-1.3-3.1-2.4-6-3.7-8.9
				c-2.8-6.1-5.8-12.1-8.7-18.1c-0.4-0.8-1.2-1.6-1.9-1.8c-6.9-1.5-13.7-2.9-20.6-4.2c-0.2,0-0.5,0-0.8,0
				C321.6,66.9,324.9,72,328,77.3z M382.7,243.3c2.6,1.6,5.3,3.2,7.8,4.9c4.3,2.9,8.7,5.7,12.9,8.8c1.2,0.9,1.8,0.7,2.7-0.3
				c3.5-3.8,7.2-7.5,10.7-11.2c-1.9-2.5-14.4-11.3-23.8-16.8C388.5,232.7,385.3,237.7,382.7,243.3z M230.8,182.2
				c-2.9,0.8-5.8,1.7-8.7,2.6c-0.6,0.2-1.2,0.5-1.6,1c-4.8,6.3-9.5,12.6-14.2,19c-0.1,0.1-0.1,0.2-0.1,0.6c1.1-0.1,2.2,0,3.2-0.2
				c7.1-1.4,14.2-2.8,21.3-4.4c0.9-0.2,1.9-1,2.4-1.9c3.3-5.8,6.5-11.7,9.7-17.6c0.3-0.5,0.4-1.2,0.7-2.5
				C238.9,180,234.8,181.1,230.8,182.2z M230,378.8c-5.3,3.7-10.7,7.5-16,11.3c-0.5,0.3-1,0.9-1.1,1.5c-0.6,5.9-1.2,11.8-1.8,18
				c1.7-0.9,3.6-1.8,5.3-2.8c5-3,10-6,15-9.1c0.6-0.4,1-1.2,1.2-1.9c1.4-6.8,2.7-13.6,4-20.4c-0.3-0.2-0.5-0.3-0.8-0.5
				C233.9,376.2,231.9,377.5,230,378.8z M359.3,457.8c-3,6.6-6.2,13.1-9.3,19.6c-0.8,1.7-1.6,3.4-2.2,5.1c-0.2,0.5-0.1,1.5,0.2,1.7
				c3.8,2.7,7.6,5.4,11.6,8.2c6-14.4,8.3-29.2,3.8-44.8C362,451,360.8,454.5,359.3,457.8z M373.8,257.5c-1.4,2.6-2.5,5.3-3.9,8.1
				c6.9,2.8,13.7,5.6,20.7,8.4c2.7-3.1,5.5-6.4,8.7-10.1c-6.9-4.8-13.6-9.5-20.6-14.3C377,252.5,375.3,254.9,373.8,257.5z
				 M365.9,272.5c-3.5,3.1-5.1,7.3-6.6,11.6c-0.1,0.3,0.2,1.1,0.5,1.2c4.8,2.6,9.7,5.3,14.6,7.8c0.4,0.2,1.4-0.2,1.7-0.6
				c2.7-3.5,5.3-7.2,8.3-11.2C378.2,278.3,372.1,275.4,365.9,272.5z M248.9,492.2c-0.3,0.4-0.3,1-0.3,1.5c0.8,5.7,1.6,11.4,2.4,17.2
				c0.1,0.5,0.1,1.1,0.2,2.1c2-2.2,3.9-4.1,5.6-6.1c2.2-2.6,4.3-5.2,6.4-7.8c0.4-0.5,0.8-1.6,0.5-2.1c-2.2-5.1-4.5-10.2-6.9-15.3
				c-0.1-0.1-0.3-0.2-0.8-0.4C253.7,485,251.3,488.6,248.9,492.2z M344.9,455.2c-3.4,3.2-4.6,7.4-5.9,11.7
				c-1.3,4.1-2.6,8.3-3.9,12.4c-0.2,0.7-0.4,1.5-0.7,2.5c1.8,0,3.4,0.2,5,0c0.5,0,1.3-0.6,1.5-1.2c4.4-10.3,8.7-20.6,13-30.9
				c0.7-1.6,0.9-3.4,1.3-5.1c-0.1-0.1-0.3-0.1-0.4-0.2C351.5,448,348.4,451.9,344.9,455.2z M353.4,505.6c0.2-0.5,0.1-1.5-0.3-1.9
				c-2.9-3.5-5.9-7-9.3-10.9c-0.8,2.5-1.5,4.4-2.1,6.4c-1.1,3.6-2.1,7.2-3,10.8c-0.1,0.6,0,1.5,0.4,1.8c2.3,2.4,4.6,4.6,7.2,7.2
				C348.7,514.4,351.1,510,353.4,505.6z M300.1,509.4c-0.1,0.3,0,0.9,0.3,1.2c3.2,4,6.4,8,9.7,12.1c1.1-2.3,2.4-4.8,3.6-7.4
				c1.5-3.3,1.5-3.3-0.9-6c-2.8-3.1-5.7-6.2-8.8-9.5C302.5,503.3,301.3,506.3,300.1,509.4z M362.1,294.9c-1.5-0.7-3-1.2-4.5-1.8
				c-1-0.4-1.8-0.2-2,1c-0.5,3.4-0.9,6.7-1.3,10.1c-0.2,1.4,0.3,2,1.8,2.1c2.9,0.1,5.8,0.6,8.7,0.8c0.5,0,1.2-0.4,1.5-0.8
				c1.6-2.2,3.1-4.4,5-7.1C368.1,297.6,365.1,296.2,362.1,294.9z M395.3,184.3c-4.8-3.8-10.6-5.1-16.2-6.5
				c-8.2-2.2-16.4-4.2-24.6-6.2c-4.7-1.2-9.5-2.1-14.2-3.2c-0.1,0.2-0.2,0.5-0.3,0.7c1.1,0.5,2.1,1.2,3.2,1.4
				c5.1,1.2,10.4,2,15.4,3.5c9.3,2.9,18.5,6,27.6,9.6c6.6,2.6,13,5.9,19.5,8.9c0.1-0.1,0.2-0.2,0.3-0.3
				C402.5,189.6,398.8,187.1,395.3,184.3z M291.7,358.2c0.1,0.1,0.2,0.3,0.3,0.4c1.6-1.3,3.1-2.7,4.7-4c-0.2-0.2-0.3-0.3-0.5-0.5
				C294.7,355.5,293.2,356.8,291.7,358.2z"/>
		</g>
	</g>
</g>
</svg>
