<?xml version="1.0" encoding="utf-8"?>
<!-- Generator: Adobe Illustrator 19.0.0, SVG Export Plug-In . SVG Version: 6.00 Build 0)  -->
<svg version="1.0" id="Capa_1" xmlns="http://www.w3.org/2000/svg" xmlns:xlink="http://www.w3.org/1999/xlink" x="0px" y="0px"
	 viewBox="0 0 1920 1080" style="enable-background:new 0 0 1920 1080;" xml:space="preserve">
<style type="text/css">
	.st0{fill:#65C7C7;}
	.st1{fill:#0AAFAB;stroke:#0AAFAB;stroke-width:1.2192;stroke-miterlimit:10;}
	.st2{fill:#FFFFFF;}
	.st3{fill:#74BC43;}
	.st4{fill:#EFEEEE;}
	.st5{fill:#F0E828;}
	.st6{fill:#F6A949;}
</style>
<g id="XMLID_27_">
	<path id="XMLID_328_" class="st0" d="M981.1,614.4c1.2-22.7,2.1-45.4,3.6-68.1c1.3-18.8,2.3-37.7,3.7-56.5c0.8-11,1-22.1,1.9-33.1
		c2.7-31.8,3.6-63.9,11-95.1c1-4.1,1-10.2,7.5-9.3c5.8,0.8,4.8,6.7,5.1,10.6c2.4,26.4-0.1,52.6-1.9,78.9c-1.5,22.9-3.1,45.7-5,68.6
		c-1.9,23-4.4,45.9-6.6,68.9c-1.2,12.6-2.3,25.2-3.5,37.9C991.8,616.2,986.4,615.3,981.1,614.4z"/>
	<path id="XMLID_327_" class="st1" d="M850.8,749.1c-6.3-1.9-12.6-0.6-18.9-0.3c-18.9,0.8-37.8,2.3-56.8,2.9
		c-34.5,1.1-69,3-103.5,2.4c-14.8-0.3-29.6-0.4-44.1-3.3c-3.1-0.6-6.2-1.5-9.2-2.8c-3.7-1.6-4.9-4.8-5-8.8c0-3.7,1.6-6.1,4.8-7.6
		c7.8-3.7,16.3-4.9,24.7-5.8c37.3-4.3,74.9-4.3,112.4-5.1c32.8-0.7,65.6-0.2,98.4,0C852.7,730.2,851.7,739.6,850.8,749.1z"/>
	<path id="XMLID_326_" class="st1" d="M1089.4,720.3c30.2,0.1,60.3,0.1,90.5,0.2c13.5,0.1,27,0.1,40.4,0.8
		c26.2,1.4,52.6,0.7,78.6,4.7c7.9,1.2,16.1,1.9,23.6,5.2c3.9,1.7,6,4,6,8.5c0,4.7-2,7.4-6.3,8.9c-8.7,3.1-17.8,3.8-26.8,4.3
		c-53.9,2.7-107.7-0.6-161.4-2.9c-13.4-0.6-26.9-1-40.3-1.5c-1.3-1.9-0.6-4-0.8-6.1C1092.4,735,1091.4,727.6,1089.4,720.3z"/>
	<path id="XMLID_324_" class="st1" d="M1018.3,624.1c6.2-20.2,12.2-40.5,18.7-60.6c8.1-25.1,16.4-50.1,24.9-75
		c8.6-24.9,17.3-49.9,29.7-73.3c1.7-3.2,3.8-6.1,5.9-9c2.6-3.6,6-4.8,10.5-3.3c4.5,1.5,6.2,4.7,6.2,9.1c0,11.8-3.2,23.2-6.4,34.4
		c-14.9,52.7-34.5,103.9-53.3,155.3c-4.5,12.2-9.1,24.4-13.6,36.6C1033.4,633.5,1025.8,628.8,1018.3,624.1z"/>
	<path id="XMLID_323_" class="st1" d="M893,646.7c-13-14.3-26.1-28.5-38.9-43c-31.2-35.2-62.4-70.3-90.9-107.8
		c-7.2-9.5-14.4-19-19.2-30.1c-1.5-3.4-3.3-6.9-0.7-10.7c3.7-5.4,7.9-6.5,13.7-3.2c9.4,5.3,16.8,13,24.2,20.6
		c11.1,11.4,21.4,23.5,31.9,35.4c16.8,18.8,32.1,38.8,48.8,57.6c12,13.6,20.1,28.9,25.6,46c3.3,10.2,7.7,20.1,11.6,30.1
		C897.6,644,895.4,645.4,893,646.7z"/>
	<path id="XMLID_322_" class="st1" d="M868.3,680.7c-26.2-7-50.6-18.8-75.7-28.7c-37.2-14.7-74.2-29.9-112.6-41.5
		c-5.4-1.6-10.9-3.1-16.4-4.3c-4.6-1.1-8.3-3.5-11.7-6.7c-3.4-3.1-3.6-6.7-1.9-10.8c1.6-3.8,4.4-5.2,8.5-5.3
		c10.8-0.3,20.9,2.6,31.1,5.3c26.6,7,52.5,16.4,78.5,25.6c16,5.7,32,11.7,47.9,17.7c22.5,8.5,45,17.1,67.5,25.7
		C878.4,665.4,873.3,673,868.3,680.7z"/>
	<path id="XMLID_321_" class="st1" d="M1060.5,657.4c17.6-7.8,35.7-14.2,53.7-21c41.8-15.8,83.5-31.5,126.4-44.2
		c13.4-4,26.8-8.1,40.9-8.7c4.8-0.2,8.8,0.5,10.8,6.1c2.1,5.8-0.7,9-4.6,12.1c-2.2,1.8-4.6,3.4-7.4,4.1c-34.3,8-66.9,21.3-99.7,34.1
		c-29.4,11.4-58.5,23.5-87.9,35.1c-5.6,2.2-11.5,3.7-17.2,5.5C1070.5,672.8,1065.5,665.1,1060.5,657.4z"/>
	<path id="XMLID_320_" class="st1" d="M854.8,717c-17.6-0.1-35.3-0.4-52.9-0.2c-18.3,0.2-36.1-3.7-54.1-6.1
		c-27-3.6-53.9-7.8-80.5-13.3c-13.9-2.8-27.8-5.5-40.8-11.5c-3.6-1.7-7.2-3.7-7.5-8.5c-0.4-6.2,2.4-9.6,9.1-10.7
		c15.4-2.7,30.6-0.2,45.9,1.3c9,0.9,17.9,2,26.9,3.3c17.9,2.6,36,4.3,53.5,8.5c13.8,3.3,26.9,9.6,40.3,14.7
		c12.6,4.8,25.6,8.9,38.4,13.3c7.5,2.6,15,5.2,22.5,7.7C855.3,715.9,855.1,716.4,854.8,717z"/>
	<path id="XMLID_319_" class="st1" d="M1088.2,714.4c17.2-5,33.9-11.5,50.8-17.5c13.2-4.6,26.3-9.4,39.4-14.4
		c14.9-5.6,30.6-6.5,46.1-8.9c22-3.4,44.1-6.2,66.3-7.7c7.8-0.5,15.5-0.6,23.2,0.8c4,0.7,7.7,2,8.5,6.9c0.9,5.2-0.7,8.8-5.5,11.2
		c-11.6,5.9-24.2,8.5-36.8,11.2c-42.2,8.8-84.8,15-127.5,20.2c-17.2,2.1-34.8,0.5-52.3,0.7c-3.8,0-7.6,0.1-11.4,0.2
		C1088.9,716.2,1088.5,715.3,1088.2,714.4z"/>
	<path id="XMLID_318_" class="st1" d="M1047.2,644c14-5.7,27.1-13.5,40.6-20.2c48.6-24.1,96.8-49.3,147.4-69.3
		c8.6-3.4,17.4-6.5,26.5-8.2c4.4-0.8,9.2-1.8,12.4,2.9c3.4,5,2.8,9.3-2.2,14.1c-7.8,7.4-17.3,12.2-26.3,17.8
		c-21.9,13.8-46.7,20.3-70.7,28.9c-39.3,14.2-78.3,29.1-117.3,44.1C1054.1,650.8,1050.7,647.4,1047.2,644z"/>
	<path id="XMLID_317_" class="st1" d="M878.9,652c-18.3-7.6-37.3-13.1-53.7-25.6c-32.9-25.2-66.8-49.1-98.8-75.6
		c-9.5-7.9-18.9-15.8-27.2-25c-2.1-2.4-4.1-4.9-5.9-7.6c-2.6-3.9-3.5-7.6-0.1-11.9c3.4-4.2,7.1-4.3,11.6-2.8
		c12.5,4.3,23.2,11.7,34,19c19.4,13.1,34,31.5,51.2,47.1c28.7,26.2,57.1,52.7,86.3,78.4c1.1,1,2.4,1.8,3.6,2.7
		C879.5,651.2,879.2,651.6,878.9,652z"/>
	<path id="XMLID_316_" class="st0" d="M945.3,617.5c-2.5-26.2-5-52.3-7.5-78.5c-3.4-34.9-7-69.8-9.2-104.8
		c-1.5-23.4-3.9-46.8-2.1-70.3c0.2-2.1,0.6-4.1,1-6.1c0.5-2.9,1.2-5.5,5-5.7c3.8-0.2,4.6,2.6,5.6,5.3c3.1,8.6,4.4,17.6,5.6,26.6
		c5,37.7,7.8,75.6,10.4,113.6c2,30,3.9,60.1,5.7,90.1c0.5,9-0.2,18.2,2.1,27.1C956.2,615.7,950.7,616.6,945.3,617.5z"/>
	<path id="XMLID_315_" class="st1" d="M932.6,621c-4.5-24.9-9-49.8-13.4-74.7c-5.8-32.7-11.5-65.5-15.7-98.4
		c-1.8-13.7-3-27.5-4-41.2c-0.5-6.4,0.1-12.8,1.7-19.1c1.1-4.6,4.5-5.7,8.4-6.4c3.7-0.7,6.1,1.4,7.9,4.4c3.4,5.8,5.5,11.8,5.8,18.7
		c0.8,18.4,2,36.7,3.5,55c2.3,27.5,5,54.9,7.5,82.4c2.4,25.6,4.8,51.3,7.2,76.9C938.5,619.5,935.8,621,932.6,621z"/>
	<path id="XMLID_314_" class="st1" d="M1062,632.5c-0.8-2.4,1.2-3.8,2.3-5.4c29.4-46.6,58.4-93.4,85.7-141.2
		c8.1-14.2,21.3-24.5,34.9-33.7c3.9-2.7,8-3,11.9,0.5c4,3.6,3.7,7.6,2,11.9c-5,12.2-13,22.6-20.9,33
		c-29.4,38.4-61.5,74.5-93.6,110.7c-7.3,8.2-14.1,16.8-22.3,24.1L1062,632.5z"/>
	<path id="XMLID_313_" class="st1" d="M1073.9,626.3c18.1-20,35.7-40.4,53.2-60.8c20.3-23.7,40.5-47.6,59.1-72.7
		c6.8-9.2,16.7-14.7,27-19.1c3.2-1.4,6.2-0.9,8.8,1.8c2.7,2.8,4.3,5.6,2.9,9.6c-1.9,5.3-5.1,9.7-8.5,14
		c-15.4,19.3-33.3,36.4-51.2,53.4c-21.2,20.1-42.7,39.9-64.3,59.5C1093.2,618.9,1082.9,621.5,1073.9,626.3z"/>
	<path id="XMLID_309_" class="st0" d="M887.6,653.1c1.3-0.7,2.3-1.8,2.8-3.2c1.4-0.6,2.2-1.8,2.6-3.2c2.4-1.3,4.7-2.7,6.2-5.1
		c0.8-0.7,1.7-1.4,2.5-2.2c7.3-5.4,14.9-10.2,22.7-14.7c1.2-0.3,2.5-0.3,3.4-1.4c0.4-0.3,0.8-0.5,1.2-0.8c1.3-0.2,2.8-0.2,3.7-1.6
		c3.2,0,5.9-1.5,8.8-2.6c1.3-0.3,2.6-0.6,3.9-0.9c5.5-0.9,11-1.8,16.5-2.7c1.1-0.2,2.2-0.5,3.3-0.7c2.2,0,4.4,0,6.5,0
		c1.2,0,2.3,0,3.5,0c0.9,0,1.8,0,2.6,0c1.2,0.1,2.3,0.2,3.5,0.3c5.3,0.9,10.6,1.8,15.9,2.7c1.4,0.2,2.7,0.4,4.1,0.6
		c2.5,1.7,5.3,2.1,8.1,2.7c1.2,0.5,2.5,1.1,3.7,1.6c0.5,0.2,0.9,0.3,1.4,0.5c1.2,0.8,2.5,1.5,4,1.5c7.5,4.7,15,9.5,22.6,14.2
		c0.9,0.7,1.8,1.5,2.7,2.2c0.5,0.4,0.9,0.8,1.4,1.3c0.8,0.8,1.5,1.5,2.3,2.3c3.4,3.4,6.9,6.8,10.3,10.2c0.6,1.5,1.7,2.4,3,3.2
		c5,7.7,10,15.3,15,23c0.4,2.2,1.3,4.1,3,5.6c3,9,7.1,17.7,9.2,27c0.2,0.4,0.3,0.9,0.5,1.3c0.3,0.9,0.7,1.8,1,2.7
		c0.1,1.1,0.1,2.2,0.2,3.3c2,7.2,3,14.7,3.4,22.2c0.1,2-0.5,4.2,0.8,6.1c0.1,1.1,0.2,2.2,0.3,3.3c0,1.2,0,2.4,0,3.6
		c-0.2,1.5-0.3,2.9-0.5,4.4c-6.2,2-12.6,0.2-18.9,1.3c-7.6,0.1-15.2,0.1-22.8,0.2c-4.9-0.1-9.8-0.4-14.6-0.1c-5.4,0.4-7.8-1.5-7-7
		c0.2-1.5-0.1-3-0.2-4.5c0.2-0.9,0.1-1.7-0.6-2.4c-0.2-7.8-1.6-15.3-4.1-22.7c-2.5-8.8-6.5-16.8-11.6-24.4
		c-12.8-18.7-32.9-26.9-53.2-21.5c-22.9,7-34.2,24.3-40.7,45.8c-2.8,7.3-4.4,14.9-4.4,22.8c-0.3,3.8-0.6,7.6-1,11.4
		c-2.4,3-5.8,2.1-8.9,2.2c-4.3,0.2-8.7,0.1-13,0.2c-7.6-0.1-15.2-0.1-22.8-0.2c-6.2-1.1-12.7,0.9-18.8-1.3c-0.2-1.5-0.3-3-0.5-4.4
		c0-1.2,0-2.3,0-3.5c0.2-0.9,0.4-1.8,0.6-2.7c0.9-9.5,1.9-18.9,2.8-28.4c1.3-1,1.2-2.4,1.2-3.8c0.3-0.5,0.5-1.1,0.8-1.6
		c0.2-1,0.5-2,0.7-3.1c2.5-8.8,5.9-17.4,9.2-25.9c1.3-1.7,2.5-3.5,2.8-5.7c5.1-7.7,10.2-15.3,15.2-23
		C884.9,656.2,886.2,654.6,887.6,653.1z M1079.2,757.2c1.5,0,3.1-0.2,4.5,0c5.1,0.7,7-1.1,6.6-6.5c-2.2-33-10.7-63.8-31.9-89.9
		c-27.7-34.1-63.2-49-107-41c-33.4,6.1-57.5,25.7-75.1,53.9c-13.6,21.8-20,45.8-22.2,71.3c-1,12.3-1.5,12.3,10.5,12.2
		c10.2,0,10.1,0,10.6-9.9c0.1-3,0.7-6,1.1-9c3.7-28.1,13.5-53.5,33.5-74.1c36.4-37.2,89.7-36.7,125.4,1.1
		c21.6,22.9,30.8,51.1,33.4,81.8C1069.5,757.2,1069.2,757.2,1079.2,757.2z M894.8,756.6C894.8,756.6,894.8,756.6,894.8,756.6
		c3.8,0,7.6-0.2,11.4,0.1c3.5,0.3,4.3-1,4.5-4.4c1.4-19.5,6.1-37.9,17.6-54.2c22.3-31.9,62-33.2,85.7-2.7
		c12.9,16.5,18.6,35.6,19.4,56.3c0.2,4,1.1,5.2,5.1,5.1c7.6-0.3,15.2-0.2,22.7,0c3.2,0.1,4.3-0.9,4.2-4.2
		c-0.3-7.2-1.1-14.3-2.4-21.4c-4.3-23.9-13.4-45.7-30.3-63.5c-33.3-35.2-84.2-36.5-118.4-3.1c-24.3,23.8-33.6,53.9-35.8,87
		c-0.3,4.6,1.4,5.5,5.4,5.2C887.5,756.4,891.2,756.6,894.8,756.6z"/>
	<path id="XMLID_308_" class="st1" d="M929,622.6c-0.4,0.3-0.8,0.5-1.2,0.8c-8.4-26.8-16.7-53.7-25.3-80.4
		c-11.8-36.5-23.9-72.8-38.7-108.2c-3.6-8.6-7.5-16.9-12.3-24.9c-4.1-6.9-1.8-14.3,4.7-16.9c4.5-1.9,7.6-0.2,10.4,3.1
		c6.7,7.9,11.1,17.2,15.1,26.5c7.2,16.7,14.1,33.6,20.5,50.7c4.4,11.7,4.9,24.4,6.9,36.7c5.7,35.4,12.5,70.6,18.8,105.8
		C928.4,618.1,928.6,620.3,929,622.6z"/>
	<path id="XMLID_307_" class="st1" d="M1014.3,622.6c-0.5-0.2-0.9-0.3-1.4-0.5c4.2-23,8.5-46,12.6-69.1c4.4-24.9,7.3-50.1,13.1-74.7
		c3.7-15.6,11-30.3,17.3-45.3c5-12,10.2-24,18-34.6c2.5-3.5,5.2-7.2,10.6-6c7.1,1.6,11,8.8,7.4,15.3c-23.5,43-36.6,90.1-52.4,136.1
		C1030.5,569.8,1022.7,596.3,1014.3,622.6z"/>
	<path id="XMLID_306_" class="st1" d="M871.4,571.6c-24.7-30.2-50-59.8-75.5-89.3c-11.2-12.9-17.4-29.4-21.5-46.3
		c-1-4.1,0.5-7.2,4.2-9.6c3.9-2.6,7.2-2.6,10.8,0.2c8.6,6.8,14.9,15.6,21,24.5c8.3,12.1,15.7,24.8,24.1,36.9
		c17,24.3,27.4,51.4,36.6,79.2C871.6,568.6,872,569.9,871.4,571.6z"/>
	<path id="XMLID_305_" class="st1" d="M820.3,629.3c-41.7-13.1-81.6-29.8-116.7-56.4c-10.1-7.6-21-14.3-29.6-23.8
		c-2.8-3.1-6.2-6.3-3.7-11.5c2.9-6,5.8-7.7,12.3-5.9c16.3,4.4,30.6,12,43.6,23.1c29.6,25.1,61.1,47.8,92.3,70.8c1.1,0.8,2,1.7,3,2.6
		C821,628.6,820.7,628.9,820.3,629.3z"/>
	<path id="XMLID_304_" class="st1" d="M1114.8,604.4c26.1-24.2,51.9-48.7,77.7-73.3c12.3-11.7,27.4-20.2,43.1-26.9
		c4.5-1.9,9.3-3.3,13.2,2c3.3,4.5,2.5,8.5-0.3,12.5c-5.2,7.6-11.8,13.8-18.7,19.8c-10.6,9.2-21.5,18-32.3,26.9
		c-1.9,1.5-4.1,2.8-6.3,3.8c-24.3,11.8-48.7,23.5-73,35.2c-0.8,0.4-1.8,0.7-2.6,1C1115.4,605.1,1115.1,604.8,1114.8,604.4z"/>
	<path id="XMLID_303_" class="st2" d="M971.6,614c-2.2,0-4.4,0-6.5,0c-1.9-30.6-3.5-61.3-5.7-91.9c-1.9-27.8-4.3-55.5-6.5-83.3
		c-1.6-21.1-3.6-42.3-7.2-63.2c-1.8-10.5-3.2-20.9-1-31.5c0.4-1.8,0.7-3.7,1.3-5.5c0.7-2.1,2-3.4,4.5-3.6c2.9-0.2,4.2,1.3,5.1,3.6
		c3,8,4.1,16.5,5,24.9c6.3,62.7,7.7,125.6,9.3,188.5C970.3,572.7,971,593.4,971.6,614z"/>
	<path id="XMLID_302_" class="st2" d="M977.7,614.1c-0.9,0-1.8,0-2.6,0c-1.7-50.1-3.2-100.1-0.6-150.2c1.9-35.4,2.9-70.9,6.8-106.1
		c0.7-6.4,2.2-12.6,3.6-18.9c0.5-2.1,1.4-4.7,4.4-4.3c2.5,0.3,3,2.4,3.4,4.6c2.8,16,2.8,32,0.7,48.1c-3.2,23.5-4.9,47.1-6.5,70.7
		c-1.9,27.6-3.7,55.2-5.3,82.9C980.1,565.2,978.9,589.7,977.7,614.1z"/>
	<path id="XMLID_301_" class="st1" d="M970.2,449.6c-1.3-21.2-2.4-42.2-4-63.1c-1.2-15.2-2.4-30.5-6.2-45.4
		c-1.8-7,0.7-13.6,4.5-19.3c3.1-4.6,11.9-3.7,14.5,1.1c2.7,5,4.5,10.2,2.2,16.2c-2.3,6.2-2.7,12.9-3.6,19.4
		c-3.8,29.1-4,58.4-5.7,87.6c-0.1,0.9-0.3,1.8-0.6,2.7C971.3,449.1,970.8,449.3,970.2,449.6z"/>
	<path id="XMLID_300_" class="st1" d="M1095.5,498.9c3.7-11.8,7.4-23.5,11.1-35.3c1.6-5,3.2-10.1,4.4-15.2
		c3.2-13.3,11.8-23,21.2-32.1c3-3,6.6-3.1,10.4-1c3.9,2.1,5.3,5.1,4.8,9.3c-0.1,1.4-0.4,2.5-1.4,3.6c-18,19.2-30.9,41.9-44.8,64
		c-1.5,2.5-3.1,4.9-4.7,7.3C1096.1,499.2,1095.8,499,1095.5,498.9z"/>
	<path id="XMLID_299_" class="st1" d="M845.4,498.3c-10.2-15.7-20.3-31.5-30.6-47.1c-5.2-7.9-11-15.5-17.6-22.3
		c-3.6-3.7-3.5-7.5-0.7-11.2c3.3-4.3,8.7-5.4,12.6-2.2c8.9,7.1,16.7,15.8,20,26.4c5.9,18.5,11.5,37.1,17.2,55.7
		C846.1,497.8,845.7,498.1,845.4,498.3z"/>
	<path id="XMLID_298_" class="st1" d="M735.4,597.9c-3.9,1-6.5-1-9.2-1.8c-20.5-6.3-40.8-13.4-62.3-16c-4.5-0.6-9.2-7.6-8.4-11.9
		c1-5.9,5.4-9.3,11.4-8.3c9.3,1.6,18.2,3.8,26.2,9.7c11.8,8.8,24.5,16.4,36.8,24.5C731.6,595.1,733.2,596.3,735.4,597.9z"/>
	<path id="XMLID_297_" class="st1" d="M760.7,716.3c-24.9,1.9-48.2,2.2-71.4-3.3c-18.5-4.4-37.4-7.3-55.5-13.4
		c-4.1-1.4-8.2-3-11.7-5.5c-2.9-2.1-5.1-4.6-3.9-8.6c27,13.8,56.9,16.7,86,22C722.4,710.8,740.8,713.2,760.7,716.3z"/>
	<path id="XMLID_296_" class="st1" d="M1323.3,685.6c1.5,4.5-0.9,6.9-4.2,8.9c-9.4,5.7-19.9,8-30.4,10.6c-20.3,5.1-41,8.7-61.6,12.3
		c-4.6,0.8-9.4,0.2-14.2,0.2c-10,0-20,0-30.1,0c0-0.5,0-1-0.1-1.5c15.6-2.4,31.2-4.7,46.8-7.3c16-2.6,32.1-5.1,48-8.4
		C1293.4,697.2,1309.3,694.4,1323.3,685.6z"/>
	<path id="XMLID_295_" class="st1" d="M1041.5,456.6c1.3-12.3,2.7-24.4,3.9-36.6c1-9.4,1-18.9,0.2-28.3c-0.3-3.5-1.8-6.8,2.8-8.4
		c3.9-1.4,10,1.2,11.6,4.8c0.5,1,0.7,2.2,0.8,3.3c1.6,10.4,1,20.5-3.7,30.3c-5,10.5-9.1,21.5-13.7,32.3
		C1043.1,454.9,1043,456.2,1041.5,456.6z"/>
	<path id="XMLID_294_" class="st1" d="M899.8,455c-6-13.3-11.9-26.6-17.4-39.9c-3.2-7.9-2.4-16.8-0.6-25.2c1.2-5.2,6.7-8.2,11.8-6.7
		c2.3,0.7,4.4,1.6,3.7,5.2c-3.1,16.3-0.1,32.4,1.2,48.6C899,443,900.6,448.9,899.8,455z"/>
	<path id="XMLID_293_" class="st1" d="M1216.2,668.4c23-9.1,45.9-17.9,67.8-29.1c8.1-4.1,16.3-8.2,22.1-15.6
		c1.5-1.9,2.4-1.2,3.5,0.2c3.1,3.9,2.6,9.9-1.2,13.2c-5.4,4.7-11.9,7.3-18.4,9.8c-22.6,8.7-45.9,15-69.2,21.5
		C1219.3,668.9,1217.9,669,1216.2,668.4z"/>
	<path id="XMLID_292_" class="st1" d="M696.8,666.6c-13.1-1.2-26.3-2.4-39.4-3.8c-7.4-0.8-14.7-0.9-22.1-0.6
		c-4.8,0.2-7.7-2.3-9.2-6.1c-1.6-3.9-0.7-8.1,2.5-10.9c3.1-2.7,6.6-2.4,10.5-0.4c17.2,8.8,35.8,13.8,54.1,19.5
		c1.4,0.4,2.7,1,4.1,1.5C697,666,696.9,666.3,696.8,666.6z"/>
	<path id="XMLID_291_" class="st1" d="M1244.1,666.9c19-6.9,38.6-12.1,56.9-20.7c2.3-1.1,4.3-3,7.2-2.9c5.4,0.3,8.7,4,8.6,9.9
		c0,4.1-4.4,8.8-8.9,8.7c-13.9-0.3-27.6,0.8-41.4,2.3C1259.1,665.1,1251.6,666,1244.1,666.9z"/>
	<path id="XMLID_290_" class="st1" d="M1213,558c13.4-13.5,29.6-21.9,48-26.4c2.5-0.6,5-0.8,7.1,0.8c2.8,2.2,5.2,5.2,4.3,8.7
		c-0.8,3.1-4.2,1-6.4,1.2c-11.3,0.9-21.6,5-32.1,8.9c-6.7,2.5-13.3,5.3-20,7.9C1213.6,558.8,1213.3,558.4,1213,558z"/>
	<path id="XMLID_289_" class="st1" d="M691.6,717.7c-26,3.2-52.6,1.9-77.7,11.7c-0.7-5.4,1.8-8.5,6.8-10.1
		c8.2-2.7,16.8-2.7,25.2-3.2C661.2,715.1,676.4,715.5,691.6,717.7z"/>
	<path id="XMLID_288_" class="st1" d="M1327.9,728.9c-25.8-9.4-52.6-8.3-78.9-11.8c4.8-0.3,9.5-0.6,14.3-0.9
		c17.1-0.9,34.1-0.6,51,1.7c2.8,0.4,5.5,1.2,8.2,2.1C1326.7,721.4,1328.8,724.1,1327.9,728.9z"/>
	<path id="XMLID_287_" class="st1" d="M1243.5,586.7c12.3-7.7,25.6-13.5,34.8-25.1c1.7-2.2,3.7-1.1,5.3,0.5
		c5.4,5.4,2.7,16.6-4.8,17.7c-11.2,1.6-22.2,4.3-33.1,7C1245,586.9,1244.3,586.7,1243.5,586.7z"/>
	<path id="XMLID_286_" class="st1" d="M663.8,711.8c-12.7,0.3-25.3,0.9-37.9,2.7c-4.2,0.6-7.1-1.7-8.8-5c-1.7-3.3-1-7,0.8-10.3
		c0.6-1.1,1.7-2.3,3.2-1.5C634.5,705,649.4,707.6,663.8,711.8z"/>
	<path id="XMLID_285_" class="st1" d="M1278.6,711.8c14.3-3.9,28.7-6.4,41.6-13.4c1.7-0.9,2.9-0.9,3.8,0.7c1.9,3.2,3,6.7,1.1,10.2
		c-1.8,3.4-4.7,5.7-8.8,5C1303.8,712.3,1291.1,712,1278.6,711.8z"/>
	<path id="XMLID_282_" class="st1" d="M1208.5,514.3c8.4-10.8,18-19.5,21.1-32.4c4.1,3.5,4.6,5.4,2.5,10.4
		C1227.6,502.6,1219.9,509.6,1208.5,514.3z"/>
	<path id="XMLID_281_" class="st1" d="M732.6,513.4c-20-9.9-28.7-24.5-19.5-31.8C715.5,494.7,725.5,503.1,732.6,513.4z"/>
	<path id="XMLID_280_" class="st1" d="M826.1,428c-5.3-4.8-8.6-11-14.4-15c-0.9-0.6-1.3-1.5-0.3-2.2c2.6-1.9,5.5-3.4,8.9-2.5
		c2.8,0.8,4.3,2.8,4.5,5.8C825.1,418.7,824.9,423.4,826.1,428z"/>
	<path id="XMLID_279_" class="st1" d="M877.1,405.1c-3.6-5.5-6.2-10.4-10.5-13.9c-2.3-1.9-1-3.4,0.3-4.6c2.6-2.2,5.7-2.8,9-2.4
		c2.1,0.2,3.2,1.6,2.6,3.5C876.8,393.1,877.9,398.6,877.1,405.1z"/>
	<path id="XMLID_278_" class="st1" d="M1065.3,404.5c0-6.7-0.1-12-1.7-17c-0.8-2.5,1-3,2.6-3.3c2.7-0.5,5.3,0,7.7,1.3
		c2.8,1.7,4.3,3.7,0.9,6.5C1071.2,395.2,1068.9,399.4,1065.3,404.5z"/>
	<path id="XMLID_277_" class="st1" d="M1116.5,428.3c0.5-6.2,0.9-11,1.3-15.9c0.3-2.8,2.6-3.6,4.7-4.1c3.1-0.7,5.9,0.7,8.3,2.6
		c1,0.8,0.2,1.7-0.5,2.3C1125.2,417.2,1121.5,422.4,1116.5,428.3z"/>
	<path id="XMLID_276_" class="st1" d="M1239.7,534.3c5.9-5.8,11.3-11.7,15.1-19.1C1260,523.7,1253.6,531.7,1239.7,534.3z"/>
	<path id="XMLID_275_" class="st1" d="M699.6,533.7c-5.3-1.5-10.4-3.2-13.1-8.8c-1.6-3.3-2.2-6.4,0.7-10c3.8,6.6,8.3,12.5,13.5,17.8
		C700.4,533,700,533.4,699.6,533.7z"/>
	<path id="XMLID_274_" class="st1" d="M746.9,479.3c-4.7-2.8-8.2-4.9-11.7-6.9c-1.9-1.1-2.6-2.6-2.2-4.7c0.5-2.5,2-4.5,4.1-5.8
		c1.4-0.8,2.1,0.5,2.3,1.5C740.7,468.8,744,473.2,746.9,479.3z"/>
	<path id="XMLID_273_" class="st1" d="M1203.5,461.5c3.2,1.4,5.1,3.3,5.5,6.7c0.4,3.9-2.9,4.4-5.1,5.8c-2.4,1.5-4.7,3-8,5
		C1198.6,472.6,1202.2,467.6,1203.5,461.5z"/>
	<path id="XMLID_272_" class="st1" d="M1093.8,755.4c0-1.2,0-2.4,0-3.6c11.1,0.5,22.2,1,33.3,1.6c0,0.2,0,0.5,0,0.7
		C1116,754.6,1104.9,755,1093.8,755.4z"/>
	<path id="XMLID_271_" class="st1" d="M850.2,751.8c0,1.2,0,2.3,0,3.5c-11.7,0-23.5,0-35.2,0c0-0.6,0-1.2,0-1.8
		C826.7,753,838.4,752.4,850.2,751.8z"/>
	<path id="XMLID_270_" class="st1" d="M776.6,457.9c-5.1-7.3-8.9-14.9-6.8-24.2c1.9,7.9,5,15.4,7.8,23.1
		C777.3,457.2,776.9,457.6,776.6,457.9z"/>
	<path id="XMLID_269_" class="st1" d="M1172.2,434c2.7,8.6-1.9,15.4-6,22.3C1166.9,448.5,1171.5,441.8,1172.2,434z"/>
	<path id="XMLID_268_" class="st1" d="M1291.1,603.6c3.2-2.7,4.9-5.2,6-8.4c3.8,2.2,4,5.8,5,9.4
		C1298.5,604.3,1295.3,604,1291.1,603.6z"/>
	<path id="XMLID_267_" class="st1" d="M1018.5,389c0-4.1-0.1-6.9,0.1-9.7c0.1-1.4-1.1-3.8,1.5-4.1c2.1-0.3,4.1,0.5,5.7,1.9
		c1,0.9,0.4,1.6-0.4,2.2C1022.5,381.7,1021.4,385.1,1018.5,389z"/>
	<path id="XMLID_266_" class="st1" d="M645.1,594.7c1.3,3.7,3.1,6.2,5.4,8.4c-0.9,1.5-2.2,1.1-3.1,0.9c-2.3-0.6-5.6,2.6-6.5,0.1
		C639.7,600.9,641.7,597.5,645.1,594.7z"/>
	<path id="XMLID_265_" class="st1" d="M676.4,557c-4.5,0.6-8.2,0.6-10.3-1.6c-1.4-1.5,1.2-4.3,2.4-7
		C671.2,551.2,673.5,553.8,676.4,557z"/>
	<path id="XMLID_264_" class="st1" d="M921.6,384.7c-1.1-2.9-5.9-3.5-4.7-7.6c0.3-0.9,3.3-2,3.8-1.6
		C923.8,378.1,921.7,381.4,921.6,384.7z"/>
	<path id="XMLID_263_" class="st1" d="M613,755.1c5.4-3.7,10.2-1.6,15,0C623.3,755.1,618.5,755.1,613,755.1z"/>
	<path id="XMLID_262_" class="st3" d="M1314.2,755c5.2-1.3,9.4-3.2,14.1,0C1323.7,755,1319.5,755,1314.2,755z"/>
	<path id="XMLID_261_" class="st1" d="M847.4,394.7c-1,2.2-0.5,4.5-1.1,6.6c-1.8,0.2-3.4-0.8-3.5-2.1
		C842.7,396.7,844.7,395.4,847.4,394.7z"/>
	<path id="XMLID_260_" class="st1" d="M1096.5,401.9c-0.6-2.5-1.1-4.6-1.6-6.9C1100.2,396.9,1100.5,398,1096.5,401.9z"/>
	<path id="XMLID_259_" class="st3" d="M821.4,628.2c1.3,0.6,2.6,1.2,3.4,2.7c-1.8,0.2-3.2-0.6-4.5-1.5
		C820.7,628.9,821,628.6,821.4,628.2z"/>
	<path id="XMLID_258_" class="st4" d="M1264.5,759.2c-1.1,1.1-2.2,1.1-3.3,0C1262.3,759.2,1263.4,759.2,1264.5,759.2z"/>
	<path id="XMLID_251_" class="st3" d="M1115.7,605.4c-0.6,0.7-1.2,1.2-2.1,0.5c0.4-0.5,0.8-1,1.2-1.4
		C1115.1,604.8,1115.4,605.1,1115.7,605.4z"/>
	<path id="XMLID_248_" class="st3" d="M777.6,456.8c0.7,0.6,1.2,1.2,0.5,2.2c-0.5-0.4-1-0.7-1.5-1.1
		C776.9,457.6,777.3,457.2,777.6,456.8z"/>
	<path id="XMLID_247_" class="st1" d="M1165.5,457.8c-0.6,0-1,0.2-1.5,0.1c-0.6-0.2-0.5-0.5,0-0.7c0.3-0.1,0.7-0.3,1-0.4
		C1165.2,457,1165.3,457.3,1165.5,457.8z"/>
	<path id="XMLID_246_" class="st3" d="M1213.8,559.1c-0.8,0.5-1.6,0.7-2.4,0c0.5-0.4,1-0.7,1.6-1.1
		C1213.3,558.4,1213.6,558.8,1213.8,559.1z"/>
	<path id="XMLID_245_" class="st3" d="M700.7,532.7c0.4,0.5,0.7,1.1,1.1,1.6c-0.9,0.6-1.6,0.1-2.2-0.6
		C700,533.4,700.4,533,700.7,532.7z"/>
	<path id="XMLID_244_" class="st4" d="M626.8,630.1c-0.1-0.3-0.3-0.5-0.3-0.8c0-0.1,0.2-0.2,0.4-0.3
		C626.8,629.4,626.8,629.8,626.8,630.1z"/>
	<path id="XMLID_243_" class="st4" d="M678.2,759.2c-0.4,0.5-0.7,0.5-1.1,0C677.5,759.2,677.9,759.2,678.2,759.2z"/>
	<path id="XMLID_242_" class="st4" d="M1167.8,759.9l-0.6,0.1l-0.6-0.1C1167,759.9,1167.4,759.9,1167.8,759.9z"/>
	<polygon id="XMLID_241_" class="st2" points="684.5,527.3 684.4,527.4 684.4,527.2 	"/>
	<path id="XMLID_240_" class="st4" d="M1306.7,759c-0.4,0.5-0.7,0.6-1.1,0C1305.9,759,1306.3,759,1306.7,759z"/>
	<path id="XMLID_239_" class="st3" d="M1061.9,632.4c-0.2,0.2-0.4,0.4-0.6,0.7c0-0.2-0.1-0.5-0.1-0.7c0.3,0,0.5,0.1,0.8,0.1
		C1062,632.5,1061.9,632.4,1061.9,632.4z"/>
	<path id="XMLID_238_" class="st3" d="M846.4,497.6c0,0.4,0,0.8,0,1.3c-0.3-0.2-0.7-0.4-1-0.5C845.7,498.1,846.1,497.8,846.4,497.6z
		"/>
	<path id="XMLID_237_" class="st5" d="M963.3,628.5c4.6-1.5,7.1-7.6,12-2.7c1.2,1.1,4.7,1.8,2.8,3.7c-2,2-4.2,6-8.4,3.6
		C967.8,632,966.1,630.5,963.3,628.5z"/>
	<path id="XMLID_236_" class="st0" d="M1087,745.5c-7.9,6.2-7.9,6.2-13.3,1.5c-1.6-1.4-1.6-1.9,0-3.3
		C1078.9,739.2,1079.9,739.3,1087,745.5z"/>
	<path id="XMLID_235_" class="st0" d="M871.5,748.1c-3.7,0.8-5.6,7.6-10.8,2.8c-1.3-1.2-4.9-2.1-3.1-4.1c1.9-2.1,4.4-5.9,8.5-3.3
		C868,744.8,870.2,745.6,871.5,748.1z"/>
	<path id="XMLID_234_" class="st6" d="M1032.2,685.1c-0.5,4.7-5.5,9.1-10.2,8.7c-4.9-0.4-9.1-5.3-8.7-10.1c0.4-5.3,5.5-9.6,10.4-9
		C1028.5,675.4,1032.6,680.4,1032.2,685.1z"/>
	<path id="XMLID_233_" class="st6" d="M903.2,717.6c-4.9,0-9.6-4.6-9.6-9.5c0-5,4.6-9.6,9.4-9.6c4.8,0.1,9.6,4.7,9.6,9.5
		C912.7,712.8,908,717.6,903.2,717.6z"/>
	<path id="XMLID_232_" class="st6" d="M971.5,665.4c-5,0-9.4-4.4-9.6-9.4c-0.1-4.8,4.6-9.7,9.4-9.6c5.1,0.1,9.6,4.5,9.6,9.4
		C980.9,660.7,976.3,665.4,971.5,665.4z"/>
	<path id="XMLID_231_" class="st6" d="M1059.5,743.9c0,4.8-4.7,9.3-9.6,9.2c-5,0-9.5-4.5-9.4-9.4c0.1-5.1,4.3-9.2,9.6-9.2
		C1055.1,734.6,1059.5,738.9,1059.5,743.9z"/>
	<path id="XMLID_230_" class="st6" d="M1000,674.5c-5,0-9.4-4.4-9.5-9.4c-0.1-4.8,4.6-9.5,9.4-9.5c4.9,0,9.6,4.5,9.6,9.4
		C1009.5,669.9,1005,674.5,1000,674.5z"/>
	<path id="XMLID_229_" class="st6" d="M953.2,663.3c0,4.9-4.4,9-9.6,9c-5.4-0.1-9.2-4-9.1-9.4c0-5.1,4.1-9,9.5-9
		C949.1,654,953.2,658.1,953.2,663.3z"/>
	<path id="XMLID_228_" class="st6" d="M905,741.9c0,5.5-3.8,9.1-9.3,9c-5.5-0.1-9.1-3.8-9.1-9.3c0-5.3,4-9.2,9.4-9.1
		C901.3,732.6,905,736.5,905,741.9z"/>
	<path id="XMLID_227_" class="st6" d="M1050.5,713.1c-0.1,5.1-4.4,9.3-9.5,9.2c-5.1-0.1-9.5-4.4-9.5-9.3c0.1-5.1,4.3-9.1,9.6-9.1
		C1046.4,703.9,1050.5,708,1050.5,713.1z"/>
	<path id="XMLID_226_" class="st6" d="M919.5,673.4c5.4,0.1,9.2,3.6,9.2,8.6c0,4.9-3.9,8.5-9.3,8.5c-5.3,0-9.1-3.6-9.1-8.7
		C910.3,676.7,914,673.3,919.5,673.4z"/>
	<path id="XMLID_223_" class="st2" d="M722.5,651.5l-4-22h-19l-4.3,22h-17.7l21.9-111.9h23l22.3,111.9H722.5z M703.2,605.1h11.5
		l-5.7-32.5L703.2,605.1z"/>
	<path id="XMLID_221_" class="st2" d="M812,651.5h-17.7l-19.4-49.4c-2.5-6.3-5-14-7.5-23.1c1.1,7.2,1.7,13.3,1.7,18.4v54.2h-17.7
		V539.6h20.6l16.5,41c3.3,8.1,5.8,15.3,7.5,21.5c-1.1-9.6-1.7-19.3-1.7-29.3v-33.1H812V651.5z"/>
	<path id="XMLID_219_" class="st2" d="M863.4,608.8l19.9,1.9c-0.9,13.7-4.2,24.2-9.6,31.6c-5.5,7.3-12.2,11-20.3,11
		c-9.6,0-17.4-5-23.3-15.1c-5.9-10.1-8.9-23.9-8.9-41.6c0-17.5,2.8-31.7,8.4-42.5s13.5-16.1,23.5-16.1c9.4,0,16.6,4.1,21.7,12.3
		c5,8.2,7.9,19.1,8.6,32.6l-20.3,1.7c0-7.5-0.9-12.9-2.7-16.2c-1.8-3.3-4-5-6.4-5c-6.9,0-10.3,10.9-10.3,32.6
		c0,12.2,0.9,20.5,2.7,24.8c1.8,4.4,4.3,6.6,7.5,6.6C859.5,627.3,862.7,621.2,863.4,608.8z"/>
	<path id="XMLID_216_" class="st2" d="M922,653.2c-10,0-18.1-5.2-24.4-15.7c-6.3-10.4-9.4-24.4-9.4-41.9c0-16.7,3-30.5,9-41.4
		s14.4-16.4,25-16.4c9.9,0,17.9,5.1,24.2,15.4c6.2,10.3,9.3,24,9.3,41.1c0,17.8-3.1,32-9.4,42.7C940,647.9,931.9,653.2,922,653.2z
		 M921.9,627.8c3.7,0,6.3-2.5,7.9-7.6c1.6-5.1,2.4-14.3,2.4-27.7c0-19.5-3.3-29.2-9.9-29.2c-7.1,0-10.7,11.1-10.7,33.3
		C911.6,617.4,915,627.8,921.9,627.8z"/>
	<path id="XMLID_214_" class="st2" d="M1055.1,539.6v111.9h-21.8V539.6H1055.1z"/>
	<path id="XMLID_212_" class="st2" d="M1128.2,651.5h-17.7l-19.4-49.4c-2.5-6.3-5-14-7.5-23.1c1.1,7.2,1.7,13.3,1.7,18.4v54.2h-17.7
		V539.6h20.6l16.5,41c3.3,8.1,5.8,15.3,7.5,21.5c-1.1-9.6-1.7-19.3-1.7-29.3v-33.1h17.7V651.5z"/>
	<path id="XMLID_210_" class="st2" d="M1179.6,608.8l19.9,1.9c-0.9,13.7-4.2,24.2-9.6,31.6c-5.5,7.3-12.2,11-20.3,11
		c-9.6,0-17.4-5-23.3-15.1c-5.9-10.1-8.9-23.9-8.9-41.6c0-17.5,2.8-31.7,8.4-42.5s13.5-16.1,23.5-16.1c9.4,0,16.6,4.1,21.7,12.3
		c5,8.2,7.9,19.1,8.6,32.6l-20.3,1.7c0-7.5-0.9-12.9-2.7-16.2c-1.8-3.3-4-5-6.4-5c-6.9,0-10.3,10.9-10.3,32.6
		c0,12.2,0.9,20.5,2.7,24.8c1.8,4.4,4.3,6.6,7.5,6.6C1175.7,627.3,1178.9,621.2,1179.6,608.8z"/>
	<path id="XMLID_207_" class="st2" d="M1245.4,651.5l-4-22h-19l-4.3,22h-17.7l21.9-111.9h23l22.3,111.9H1245.4z M1226.1,605.1h11.5
		l-5.7-32.5L1226.1,605.1z"/>
	<path id="XMLID_205_" class="st2" d="M1334.9,651.5h-17.7l-19.4-49.4c-2.5-6.3-5-14-7.5-23.1c1.1,7.2,1.7,13.3,1.7,18.4v54.2h-17.7
		V539.6h20.6l16.5,41c3.3,8.1,5.8,15.3,7.5,21.5c-1.1-9.6-1.7-19.3-1.7-29.3v-33.1h17.7V651.5z"/>
	<path id="XMLID_204_" class="st1" d="M887.6,653.1c-41.1-36-81.5-72.7-120.8-110.5c-15-14.4-29.8-29.1-42.5-45.8
		c-1.8-2.4-3.6-4.9-5-7.6c-2.5-4.5-3.9-8.8,0.5-13.4c4.3-4.5,8.7-3.3,12.9-1c10.4,5.6,19.8,12.2,27,22c24.3,33,51.5,63.6,78.4,94.5
		c17.2,19.7,34.8,39,52.3,58.5C889.8,651.3,888.9,652.4,887.6,653.1z"/>
	<path id="XMLID_203_" class="st1" d="M901.7,639.5c-6.7-18.1-13.3-36.2-20-54.2c-14.8-40-29.5-80-42-120.7
		c-5-16.2-10.3-32.4-11.4-49.5c-0.2-3.4-0.5-6.9,2-9.8c3.7-4.1,10.2-4,13.9,0.3c7.3,8.4,11.5,18.7,15.7,28.7
		c15.2,36.1,27.4,73.2,39.3,110.4c8.6,26.6,16.8,53.3,25.2,80C916.6,629.3,908.9,634.1,901.7,639.5z"/>
	<path id="XMLID_202_" class="st1" d="M1001.1,617.7c2.8-32,5.7-64.1,8.5-96.1c3.4-38.3,6.6-76.6,8.1-115c0.3-7.6,3.3-14.7,7.2-21.2
		c1.7-2.8,4-5,7.9-4.3c4.1,0.8,7.5,2.3,8.6,7c2.1,9,1.6,18.2,0.9,27.2c-3,36.2-8.9,72-15.2,107.7c-5.4,30.5-11,61-16.5,91.4
		c-0.4,2-0.9,4.1-1.4,6.1C1006.4,619.8,1003.6,619.4,1001.1,617.7z"/>
	<path id="XMLID_201_" class="st1" d="M856.3,712.3c-13.2-6.2-27.3-9.9-40.9-14.9c-49.3-18-99-35.1-146.8-57.1
		c-8.4-3.9-16.8-8-24.2-13.6c-6.5-4.9-7.8-8-5.5-13.7c2-5,6.2-6.6,14-5.4c14.6,2.2,28.7,6.7,42.6,11.4c23.3,7.9,46.2,16.5,69,25.8
		c25.5,10.3,51.1,20.5,76.3,31.4c8.2,3.6,16.8,6.3,24.8,10.3C862.1,694.9,858.7,703.5,856.3,712.3z"/>
	<path id="XMLID_68_" class="st1" d="M1043.6,640.5c8.7-23.2,17.5-46.3,26.1-69.5c5.6-15,10.4-30.4,16.4-45.2
		c5.4-13.4,14-25.1,21.4-37.4c11.1-18.3,22.5-36.4,36.2-53c2.8-3.4,5.7-6.5,9.4-9.1c3-2.1,5.9-3,9.4-0.9c3.5,2.2,5.8,4.6,5.4,9.1
		c-0.8,7.5-3.7,14.3-6.9,20.9c-17.5,36.1-38.5,70.2-59.6,104.3c-14.3,23-28.7,45.9-42.8,69.1c-3.4,5.6-7.2,10.6-13.7,12.8
		C1044.5,641.3,1044,640.9,1043.6,640.5z"/>
	<path id="XMLID_65_" class="st1" d="M1078.5,686c16.1-7.9,32.9-14.3,49.4-21c44.8-18.3,89.4-36.9,135.7-51.1c8.9-2.7,17.8-5,27-6.2
		c4.5-0.6,9.3-0.9,12,4.1c2.6,4.8,2.2,8.9-2.1,12.7c-8,6.9-17.4,11.5-26.8,15.8c-33.5,15.5-68,28.4-102.6,41.1
		c-26.2,9.6-52.6,18.9-78.9,28.4c-1.8,0.7-4.3,0.5-4.6,3.4C1085.6,703.7,1081.6,695,1078.5,686z"/>
	<path id="XMLID_59_" class="st6" d="M1079.2,757.2c-10,0-9.7,0-10.5-10c-2.6-30.7-11.8-58.9-33.4-81.8
		c-35.7-37.9-89-38.4-125.4-1.1c-20.1,20.5-29.9,46-33.5,74.1c-0.4,3-0.9,6-1.1,9c-0.5,9.9-0.4,9.9-10.6,9.9
		c-12.1,0-11.6,0.1-10.5-12.2c2.2-25.4,8.6-49.5,22.2-71.3c17.6-28.2,41.8-47.9,75.1-53.9c43.8-8,79.3,7,107,41
		c21.2,26.1,29.7,56.9,31.9,89.9c0.4,5.4-1.5,7.2-6.6,6.5C1082.3,757.1,1080.7,757.2,1079.2,757.2z M963.3,628.5
		c2.8,2,4.5,3.5,6.4,4.6c4.2,2.4,6.4-1.6,8.4-3.6c1.9-1.9-1.6-2.6-2.8-3.7C970.4,620.9,967.9,626.9,963.3,628.5z M1087,745.5
		c-7.1-6.2-8.1-6.3-13.3-1.8c-1.6,1.4-1.6,1.9,0,3.3C1079.1,751.6,1079.2,751.7,1087,745.5z M871.5,748.1c-1.3-2.5-3.5-3.4-5.4-4.5
		c-4.1-2.6-6.6,1.2-8.5,3.3c-1.8,2,1.8,2.8,3.1,4.1C865.9,755.7,867.8,749,871.5,748.1z"/>
	<path id="XMLID_53_" class="st2" d="M675.4,539.6l-20.6,51.9l23.9,60h-25.4l-13.1-35.2L627,651.5H607l22.9-57.8L608,539.6h25.4
		l11,30.1l11.4-30.1H675.4z"/>
	<path id="XMLID_52_" class="st1" d="M727.7,669.1c-20.7-4.5-41.3-10-61.5-16.9c-10.6-3.6-21.2-7-30.6-13.2c-5.7-3.8-7-9.6-3.5-14.6
		c0.9-1.3,1.8-3.3,3.9-0.9c8.9,10.4,21.4,15.4,33.3,21.1c17.9,8.6,36.4,15.7,54.8,23.1C725.3,668.1,726.5,668.6,727.7,669.1z"/>
	<path id="XMLID_49_" class="st2" d="M987,610.9v40.7h-22.1V539.6h30.3c7.6,0,13.3,1.4,17.2,4.1c3.9,2.7,7.1,6.9,9.4,12.5
		c2.3,5.6,3.5,11.9,3.5,18.9c0,10.7-2.4,19.3-7.1,25.8c-4.7,6.6-11,9.8-18.9,9.8H987z M986.6,586.9h7.3c6.4,0,9.6-3.7,9.6-11.1
		c0-7-3-10.5-8.9-10.5h-8V586.9z"/>
	<path id="XMLID_30_" class="st4" d="M894.8,756.6c-3.6,0-7.2-0.2-10.8,0.1c-4,0.3-5.7-0.6-5.4-5.2c2.1-33.1,11.4-63.2,35.8-87
		c34.2-33.4,85.2-32.1,118.4,3.1c16.9,17.9,26,39.6,30.3,63.5c1.3,7.1,2.1,14.2,2.4,21.4c0.1,3.2-0.9,4.2-4.2,4.2
		c-7.6-0.2-15.2-0.3-22.7,0c-4,0.2-5-1.1-5.1-5.1c-0.8-20.7-6.5-39.7-19.4-56.3c-23.8-30.5-63.4-29.2-85.7,2.7
		c-11.4,16.3-16.2,34.7-17.6,54.2c-0.2,3.4-1,4.7-4.5,4.4C902.4,756.4,898.6,756.6,894.8,756.6C894.8,756.6,894.8,756.6,894.8,756.6
		z M1032.2,685.1c0.5-4.7-3.6-9.7-8.5-10.4c-4.9-0.7-10,3.7-10.4,9c-0.4,4.8,3.8,9.7,8.7,10.1
		C1026.6,694.2,1031.7,689.9,1032.2,685.1z M903.2,717.6c4.8,0,9.5-4.8,9.5-9.6c0-4.7-4.8-9.4-9.6-9.5c-4.8-0.1-9.4,4.6-9.4,9.6
		C893.7,713,898.3,717.7,903.2,717.6z M971.5,665.4c4.8,0,9.4-4.7,9.4-9.6c0-4.9-4.5-9.3-9.6-9.4c-4.7-0.1-9.5,4.8-9.4,9.6
		C962.1,661,966.5,665.4,971.5,665.4z M1059.5,743.9c0-5-4.3-9.3-9.5-9.3c-5.3,0-9.5,4-9.6,9.2c-0.1,4.9,4.5,9.4,9.4,9.4
		C1054.8,753.1,1059.4,748.7,1059.5,743.9z M1000,674.5c4.9,0,9.5-4.6,9.5-9.5c0-4.9-4.6-9.4-9.6-9.4c-4.8,0-9.5,4.7-9.4,9.5
		C990.6,670.2,995.1,674.6,1000,674.5z M953.2,663.3c0-5.2-4.1-9.3-9.2-9.4c-5.4,0-9.5,3.8-9.5,9c0,5.4,3.8,9.3,9.1,9.4
		C948.8,672.4,953.2,668.2,953.2,663.3z M905,741.9c0-5.4-3.6-9.3-9-9.4c-5.3-0.1-9.3,3.8-9.4,9.1c0,5.5,3.6,9.2,9.1,9.3
		C901.2,751,904.9,747.4,905,741.9z M1050.5,713.1c0.1-5.2-4-9.2-9.4-9.2c-5.3,0-9.5,4-9.6,9.1c-0.1,4.9,4.4,9.3,9.5,9.3
		C1046.1,722.4,1050.4,718.3,1050.5,713.1z M919.5,673.4c-5.5-0.1-9.2,3.3-9.2,8.4c-0.1,5.1,3.8,8.7,9.1,8.7c5.4,0,9.3-3.6,9.3-8.5
		C928.7,676.9,925,673.4,919.5,673.4z"/>
</g>
</svg>
